<svg width="60" height="81" viewBox="0 0 60 81" fill="none" xmlns="http://www.w3.org/2000/svg">
<g clip-path="url(#clip0_1_523)">
<g clip-path="url(#clip1_1_523)">
<path d="M20.7457 47.0103H8.54236V49.0442H20.7457V47.0103Z" fill="#012269"/>
<path d="M16.0678 38.2645C17.6949 38.2645 18.9152 37.0441 18.9152 35.417V28.5018C18.7119 26.8746 17.4915 25.6543 16.0678 25.6543H8.94914C7.32202 25.6543 6.10168 26.8746 6.10168 28.5018V35.6204C6.10168 37.2475 7.32202 38.4679 8.94914 38.4679H16.0678V38.2645ZM8.13558 35.6204V28.5018C8.13558 28.095 8.54236 27.6882 8.94914 27.6882H16.0678C16.4746 27.6882 16.8813 28.095 16.8813 28.5018V35.6204C16.8813 36.0272 16.4746 36.434 16.0678 36.434H8.94914C8.54236 36.2306 8.13558 36.0272 8.13558 35.6204Z" fill="#012269"/>
<path d="M53.8983 19.5526H6.1017C2.64407 19.5526 0 22.4001 0 25.8577V54.9424C0 58.4001 2.64407 61.2475 6.1017 61.2475H53.8983C57.1525 61.2475 60 58.4001 60 54.9424V25.8577C60 22.4001 57.3559 19.5526 53.8983 19.5526ZM57.9661 54.9424C57.9661 57.3831 56.1356 59.2136 53.8983 59.2136H6.1017C3.86441 59.2136 2.0339 57.3831 2.0339 54.9424V25.8577C2.0339 23.417 3.86441 21.5865 6.1017 21.5865H53.8983C56.1356 21.5865 57.9661 23.417 57.9661 25.8577V54.9424Z" fill="#012269"/>
<path d="M36.2034 47.0103H24V49.0442H36.2034V47.0103Z" fill="#012269"/>
<path d="M51.2543 47.0103H39.0509V49.0442H51.2543V47.0103Z" fill="#012269"/>
</g>
</g>
<defs>
<clipPath id="clip0_1_523">
<rect width="60" height="80" fill="white" transform="translate(0 0.400024)"/>
</clipPath>
<clipPath id="clip1_1_523">
<rect width="60" height="41.6949" fill="white" transform="translate(0 19.5526)"/>
</clipPath>
</defs>
</svg>
