<svg width="259" height="81" viewBox="0 0 259 81" fill="none" xmlns="http://www.w3.org/2000/svg">
<g clip-path="url(#clip0_1_593)">
<g clip-path="url(#clip1_1_593)">
<g clip-path="url(#clip2_1_593)">
<path d="M117.039 66.8654H114.019L111.435 72.2519L108.913 66.8654H105.83V76.9845H108.134V70.0724L111.435 76.9845L114.704 70.1035V76.9845H117.039V66.8654ZM16.5017 76.9845H20.9853C23.2582 76.9845 24.3168 75.8325 24.3168 74.2135C24.3168 72.8746 23.6007 71.9717 22.1684 71.6915C23.445 71.4112 24.0366 70.6017 24.0366 69.4497C24.0366 68.0174 22.9468 66.8654 20.7051 66.8654H16.5017V76.9845ZM48.8206 66.8654H46.4543V73.5285L42.1576 66.8654H39.5422V76.9845H41.9085V70.3215L46.2052 76.9845H48.8206V66.8654ZM136.997 76.9845H139.737L137.215 72.6878C138.585 72.3142 139.239 71.3178 139.239 69.9167C139.239 68.0797 138.118 66.8654 135.596 66.8654H131.673V76.9845H134.164V73.0303H134.755L136.997 76.9845ZM33.0037 66.8654H30.4194L26.6208 76.9845H29.174L29.859 74.9296H33.533L34.218 76.9845H36.8334L33.0037 66.8654ZM222.496 70.1035C222.496 68.0797 221.375 66.8654 218.853 66.8654H214.93V76.9845H217.421V73.3416H218.853C221.375 73.3416 222.496 72.0339 222.496 70.1035ZM58.6907 76.9845L55.3592 71.8783V76.9845H52.8372V66.8654H55.3592V71.7226L58.535 66.8654H61.3372L58.0057 71.7226L61.6486 76.9845H58.6907ZM121.149 76.9845H128.123V74.9918H123.671V72.7812H127.189V70.8508H123.671V68.827H127.781L128.248 66.8654H121.18V76.9845H121.149ZM157.142 74.3069C156.146 74.9296 155.336 75.1787 154.495 75.1787C152.596 75.1787 151.32 73.9021 151.32 71.9717C151.32 70.0724 152.596 68.7958 154.433 68.7958C155.274 68.7958 156.114 69.0138 157.017 69.6676V67.3324C156.177 66.8654 155.212 66.6786 154.091 66.6786C150.728 66.6786 148.58 69.0138 148.58 71.9405C148.58 74.9607 150.666 77.2336 154.122 77.2336C155.274 77.2336 156.239 77.0468 157.142 76.5798V74.3069ZM252.293 76.9845H254.815V73.2171L258.52 66.8654H255.656L253.601 70.7885L251.514 66.8654H248.619L252.293 73.1548V76.9845ZM81.0462 76.9845H83.5682V73.0303H86.7751V71.0687H83.5682V68.827H87.429L87.896 66.8654H81.0462V76.9845ZM142.851 76.9845H145.341V75.1787V66.8654H142.851V76.9845ZM20.3937 72.6878C21.2032 72.6878 21.7637 73.1237 21.7637 73.9332C21.7637 74.805 21.2032 75.1787 20.3937 75.1787H18.9926V72.6878H20.3937ZM218.448 68.7647C219.445 68.7647 219.943 69.2006 219.943 70.0724C219.943 70.9442 219.413 71.4112 218.448 71.4112H217.421V68.7647H218.448ZM135.191 68.7647C136.188 68.7647 136.686 69.2006 136.686 70.0101C136.686 70.8508 136.156 71.3178 135.191 71.3178H134.164V68.7647H135.191ZM20.1446 68.6401C20.9853 68.6401 21.5146 69.0138 21.5146 69.8233C21.5146 70.6328 20.9853 71.0065 20.1446 71.0065H18.9926V68.6401H20.1446ZM31.696 69.294L32.9103 72.9992H30.4817L31.696 69.294ZM6.66283 66.8654H4.07856L0.279999 76.9845H2.83313L3.51812 74.9296H7.19214L7.87712 76.9845H10.4925L6.66283 66.8654ZM5.35513 69.294L6.56942 72.9992H4.14083L5.35513 69.294ZM72.9197 77.2336C69.6193 77.2336 67.471 74.8984 67.471 71.9094C67.471 68.9515 69.5882 66.6475 72.9197 66.6475C76.2201 66.6475 78.3685 68.9826 78.3685 71.9094C78.3685 74.8984 76.2201 77.2336 72.9197 77.2336ZM72.9197 75.1475C74.5077 75.1475 75.6597 73.9021 75.6597 71.9094C75.6597 69.9167 74.4765 68.7024 72.9197 68.7024C71.3318 68.7024 70.1798 69.9167 70.1798 71.9094C70.1486 73.9021 71.3318 75.1475 72.9197 75.1475ZM98.9492 66.8654H96.365L92.5352 76.9845H95.0884L95.7734 74.9296H99.4474L100.132 76.9845H102.748L98.9492 66.8654ZM97.6415 69.294L98.8558 72.9992H96.4272L97.6415 69.294ZM165.829 66.8654H163.245L159.446 76.9845H161.999L162.684 74.9296H166.358L167.043 76.9845H169.659L165.829 66.8654ZM164.521 69.294L165.735 72.9992H163.307L164.521 69.294ZM183.732 74.3069C182.736 74.9296 181.926 75.1787 181.085 75.1787C179.186 75.1787 177.91 73.9021 177.91 71.9717C177.91 70.0724 179.186 68.7958 181.023 68.7958C181.864 68.7958 182.704 69.0138 183.607 69.6676V67.3324C182.767 66.8654 181.801 66.6786 180.681 66.6786C177.318 66.6786 175.17 69.0138 175.17 71.9405C175.17 74.9607 177.256 77.2336 180.712 77.2336C181.864 77.2336 182.829 77.0468 183.732 76.5798V74.3069ZM191.422 77.2336C188.122 77.2336 185.974 74.8984 185.974 71.9094C185.974 68.9515 188.091 66.6475 191.422 66.6475C194.754 66.6475 196.871 68.9826 196.871 71.9094C196.871 74.8984 194.723 77.2336 191.422 77.2336ZM191.422 75.1475C193.01 75.1475 194.162 73.9021 194.162 71.9094C194.162 69.9167 192.979 68.7024 191.422 68.7024C189.835 68.7024 188.682 69.9167 188.682 71.9094C188.682 73.9021 189.835 75.1475 191.422 75.1475ZM211.038 66.8654H208.018L205.434 72.2519L202.912 66.8654H199.829V76.9845H202.133V70.0724L205.434 76.9845L208.703 70.1035V76.9845H211.038V66.8654ZM230.093 66.8654H227.509L223.71 76.9845H226.263L226.948 74.9296H230.622L231.307 76.9845H233.923L230.093 66.8654ZM228.785 69.294L230 72.9992H227.571L228.785 69.294ZM245.879 66.8654H243.513V73.5285L239.216 66.8654H236.6V76.9845H238.967V70.3215L243.263 76.9845H245.879V66.8654Z" fill="#012169"/>
<path d="M26.5897 56.7463H21.4523V41.5209L14.1354 56.7463L6.81851 41.5209V56.7463H1.83679V33.955H8.31303L14.1977 46.2536L20.1135 33.955H26.5897V56.7463ZM37.2693 56.7463H52.8372V52.3873H42.8115V47.3122H50.7199V43.0777H42.8115V38.314H51.9965L52.9617 33.955H37.2693V56.7463ZM79.9876 56.7463H73.9783L68.9655 47.7481H67.5021V56.7463H62.0534V33.955H70.8025C76.4069 33.955 78.8667 36.6949 78.8667 40.836C78.8667 44.0429 77.3721 46.2224 74.2897 47.0942L79.9876 56.7463ZM73.3245 41.0539C73.3245 39.1546 72.1102 38.1583 69.8373 38.1583H67.5021V43.9807H69.8373C72.1102 43.9807 73.3245 43.0155 73.3245 41.0539ZM106.173 56.7463H100.164L95.1507 47.7481H93.6873V56.7463H88.2385V33.955H96.9877C102.592 33.955 105.052 36.6949 105.052 40.836C105.052 44.0429 103.557 46.2224 100.475 47.0942L106.173 56.7463ZM99.5097 41.0539C99.5097 39.1546 98.2954 38.1583 96.0225 38.1583H93.6873V43.9807H96.0225C98.2954 43.9807 99.5097 43.0155 99.5097 41.0539ZM114.455 56.7463H119.997V54.9093V33.955H114.455V56.7463ZM130.801 56.7463H146.12V52.2005H136.343V33.955H130.801V56.7463ZM154.06 56.7463H169.378V52.2005H159.571V33.955H154.028V56.7463H154.06Z" fill="#012169"/>
<path fill-rule="evenodd" clip-rule="evenodd" d="M233.736 54.9093C233.736 53.9129 234.577 53.1034 235.635 53.1034C236.663 53.1034 237.503 53.9129 237.503 54.9093C237.503 55.9367 236.663 56.7463 235.635 56.7463C234.577 56.7463 233.736 55.9367 233.736 54.9093ZM234.11 54.9093C234.11 55.7499 234.795 56.4038 235.635 56.4038C236.476 56.4038 237.13 55.7499 237.13 54.9093C237.13 54.0997 236.476 53.4459 235.635 53.4459C234.795 53.4459 234.11 54.0997 234.11 54.9093Z" fill="#012169"/>
<path fill-rule="evenodd" clip-rule="evenodd" d="M236.569 55.9368H236.227L235.635 55.0027H235.262V55.9368H234.95V53.8818H235.853C236.04 53.8818 236.196 53.8818 236.351 53.9752C236.507 54.0687 236.569 54.2555 236.569 54.4111C236.569 54.8159 236.289 54.9716 235.915 54.9716L236.569 55.9368ZM235.573 54.7536C235.884 54.7536 236.289 54.8159 236.289 54.4423C236.289 54.1621 236.04 54.1621 235.791 54.1621H235.262V54.7848H235.573V54.7536Z" fill="#012169"/>
<path d="M196.217 23.8047C195.065 23.6179 193.944 23.6179 192.699 23.8047L192.357 23.1197C193.446 22.2479 195.595 22.3102 196.591 23.1197L196.217 23.8047ZM233.767 43.7316C230.436 53.3836 230.903 55.3141 230.965 56.7463H221.5C221.873 55.8745 223.586 52.7921 223.99 49.8342C223.555 50.2078 221.593 51.7023 218.822 50.6437C217.763 53.2591 216.02 56.1859 215.677 56.7463H207.302C208.236 55.1584 210.478 52.3873 211.567 48.2151L209.139 48.4331L208.983 46.5649L207.52 46.6895C207.333 49.1803 207.115 52.0448 207.115 52.0448C205.589 52.2628 203.597 52.4807 201.853 52.4807C201.137 52.4807 198.77 52.6053 196.404 50.5192C194.972 49.336 193.259 47.8415 191.578 46.3158C191.422 49.8964 190.644 55.8745 190.519 56.7774H182.829C183.607 52.4807 184.573 51.5466 182.642 42.9532C182.331 41.5521 182.393 39.8085 183.171 38.4073C180.899 35.4806 180.214 32.0868 181.148 28.475C182.019 25.2058 183.576 20.2863 184.759 16.768L182.455 16.4878C182.393 15.6471 183.047 14.4017 183.856 13.7167C182.704 12.2844 182.237 10.8211 182.237 9.48223C182.424 3.37962 188.62 3.44189 190.737 3.50416C189.305 5.77707 188.682 7.86317 189.367 8.3302C190.052 8.7661 191.64 7.64522 194.256 7.64522C196.871 7.64522 198.459 8.7661 199.144 8.3302C199.829 7.8943 199.206 5.77707 197.774 3.50416C199.891 3.44189 206.087 3.34848 206.243 9.45109C206.243 10.8211 205.776 12.3156 204.749 13.5921C205.402 14.4017 206.025 15.5226 206.15 16.4566L203.441 16.5189C203.97 17.5464 204.437 18.3248 204.499 18.4493C206.492 21.9988 208.391 24.7699 210.042 26.5446C213.622 30.4366 218.728 32.0557 222.309 32.3047C226.326 32.585 228.723 31.7754 229.595 29.8761C230.155 28.693 230.124 27.5098 229.564 26.4201C228.349 24.0849 224.707 22.2168 219.32 21.2204C214.432 20.3175 210.913 18.8852 209.699 14.931V14.8998C209.668 14.8064 208.983 12.409 210.509 10.3852C211.754 8.70383 214.058 7.86317 217.296 7.86317H234.701C234.608 8.01884 233.331 10.6654 231.681 12.3779C229.688 14.4639 227.758 15.0867 226.108 15.0867C223.43 15.0867 221.873 13.5299 220.628 12.2844C219.538 11.1947 218.791 10.5097 217.701 10.4474C217.421 10.4474 213.84 10.2606 212.595 11.9108C211.879 12.8449 212.159 14.028 212.19 14.1526C212.937 16.55 214.93 17.7332 219.787 18.6361C224.177 19.4457 229.813 21.2515 231.868 25.2058C232.802 27.0117 232.833 29.0355 231.961 30.9659C230.996 33.052 229.066 34.3286 226.201 34.7645C228.225 36.944 228.692 38.8744 230.093 40.8671C230.622 41.6766 231.868 42.8598 233.767 43.7316ZM222.465 10.4786C223.586 11.6306 224.489 12.5335 226.108 12.5335C227.664 12.5335 229.003 11.5061 229.937 10.4786H222.465ZM189.056 43.9495C188.62 43.5447 185.818 40.9916 185.195 40.4312C184.541 42.0814 187.406 48.0594 186.067 54.1309H188.309C188.714 50.6748 189.181 45.8488 189.056 43.9495ZM216.611 49.118C216.269 48.7444 215.989 48.3085 215.739 47.8415L214.307 47.966C213.716 50.5503 212.782 52.6364 211.972 54.1309H214.183C214.868 52.9166 215.895 50.9551 216.611 49.118ZM222.714 47.4056C221.811 47.0008 218.573 46.4092 217.826 46.1913C218.137 47.032 218.946 48.1217 220.254 48.4019C221.531 48.651 222.371 47.8726 222.714 47.4056ZM230.591 44.9147C228.536 43.3579 227.851 42.4861 226.45 39.8707C225.516 38.1271 224.24 35.3249 220.752 34.7645C216.798 34.204 211.754 32.3047 208.08 28.3194C207.706 27.9146 207.333 27.4787 206.99 27.0428C207.053 28.6307 206.71 30.8102 205.714 32.585L203.69 30.7791C204.001 30.0318 204.25 29.1912 204.344 28.1637C204.562 25.6105 203.846 22.7461 202.133 19.6013C202.071 19.4768 200.763 17.1416 200.047 15.7094L197.618 19.1966L198.023 20.5666L197.058 22.2479C195.688 21.9054 193.291 21.9365 191.921 22.2479L191.08 20.5666H195.906C195.906 20.5666 196.186 19.8816 195.999 19.0409C195.314 16.1453 195.501 13.1874 199.238 13.1251C199.549 13.1251 199.985 13.1562 200.358 13.1562C202.6 13.094 203.597 10.8833 203.597 9.45109C203.597 7.86317 202.413 6.33751 201.137 6.1507C201.666 7.11591 201.604 8.73497 201.292 9.35768C201.012 9.9804 200.203 10.9456 198.895 10.9456C198.023 10.9456 196.435 10.2295 194.225 10.2295C191.983 10.2295 190.426 10.9456 189.554 10.9456C188.247 10.9456 187.437 9.9804 187.157 9.35768C186.845 8.70383 186.783 7.11591 187.313 6.1507C186.067 6.30638 184.853 7.83203 184.853 9.45109C184.884 11.3192 186.503 13.3431 188.589 13.7167C188.371 14.3083 188.309 14.4639 187.748 16.1764C186.565 19.5391 184.697 25.4237 183.732 29.0355C182.798 32.585 183.825 35.7608 186.845 38.4073C187.499 38.9678 192.481 43.5447 194.069 44.977C194.069 43.2645 194.629 41.1784 196.217 38.6876L198.179 40.4312C196.684 42.8909 196.28 45.1015 196.996 46.8763C197.587 48.3085 198.895 49.3983 200.545 49.7408C201.355 49.9276 203.223 49.803 204.686 49.6785C204.749 48.9935 204.811 47.9972 204.904 46.8451L200.639 47.1876C201.573 46.1602 202.725 43.5448 202.725 41.1162H205.309C205.309 42.1436 205.153 43.2334 204.873 44.2297L211.318 43.7316L211.474 45.5686L214.961 45.2572C214.961 45.1949 214.961 45.1638 214.961 45.1015C213.155 44.1986 211.163 41.4898 212.065 37.4733H214.774C214.152 39.0301 214.245 41.6455 216.051 42.7352C217.109 43.3891 218.791 43.7316 220.285 44.0429C222.901 44.6034 225.89 45.2261 226.481 47.9972C226.855 49.803 226.108 52.3562 225.454 54.0998H228.318C228.692 50.8305 230.342 45.7243 230.591 44.9147ZM196.996 16.7991C198.459 16.7369 199.175 15.7716 199.113 14.4639C197.65 14.4951 196.933 15.4914 196.996 16.7991ZM189.772 14.2771C189.71 15.8028 190.551 16.9237 192.232 16.9859C192.294 15.4603 191.454 14.3394 189.772 14.2771Z" fill="#012169"/>
</g>
</g>
</g>
<defs>
<clipPath id="clip0_1_593">
<rect width="258.24" height="80" fill="white" transform="translate(0.279999 0.400024)"/>
</clipPath>
<clipPath id="clip1_1_593">
<rect width="258.24" height="80" fill="white" transform="translate(0.279999 0.400024)"/>
</clipPath>
<clipPath id="clip2_1_593">
<rect width="258.24" height="73.7917" fill="white" transform="translate(0.279999 3.50415)"/>
</clipPath>
</defs>
</svg>
