<svg width="195" height="129" viewBox="0 0 195 129" fill="none" xmlns="http://www.w3.org/2000/svg">
<g clip-path="url(#clip0_1_269)">
<g clip-path="url(#clip1_1_269)">
<g clip-path="url(#clip2_1_269)">
<path d="M164.624 52.6178L0.5 40.4145L5.61102 29.8713L178.624 45.8685L164.624 52.6178Z" fill="#780032"/>
<path d="M93.881 97.4848H163.906L178.662 91.0892L115.343 92.02L93.881 97.4848Z" fill="#780032"/>
<path d="M167.471 38.1611L0.5 40.4145L0.989874 19.1648L177.737 17.1672L167.471 38.1611Z" fill="#E31837"/>
<path d="M178.662 91.0893L55.6708 92.8964L55.7143 46.3692L178.624 45.8684L178.662 91.0893Z" fill="#E31837"/>
<path d="M188.035 109.53L97.0162 110.913L93.881 97.4848L194.18 95.6233L188.035 109.53Z" fill="#E31837"/>
<path d="M23.3227 33.7739L23.2683 24.3357L26.6702 24.3139C30.0776 24.2921 30.9974 26.4693 31.0083 28.9895C31.0247 31.564 30.0177 33.7304 26.594 33.7521L23.3173 33.7739H23.3227ZM24.7706 25.5114L24.8141 32.5982L26.4416 32.5873C27.3288 32.5819 29.5115 32.5492 29.4897 29.0874C29.4679 25.5712 27.4867 25.4896 26.4688 25.495L24.7651 25.5059L24.7706 25.5114Z" fill="white"/>
<path d="M37.9591 33.7957C34.6823 33.8175 33.4304 31.956 33.4141 29.0657C33.3978 26.4585 34.5517 24.118 37.8992 24.0962C41.2467 24.0744 42.2427 26.4204 42.2591 28.9732C42.2754 31.711 40.8439 33.774 37.9591 33.7903V33.7957ZM37.9101 25.1903C35.5206 25.2066 34.9436 27.1117 34.9545 29.0929C34.9708 31.4607 35.8635 32.7343 37.9536 32.7235C39.8587 32.7126 40.7405 31.0416 40.7241 29.0222C40.7132 27.2477 40.256 25.1739 37.9046 25.1903H37.9101Z" fill="white"/>
<path d="M46.2434 26.4149C46.2543 28.4669 46.2869 30.4319 46.3414 33.6324L44.8772 33.6433L44.8228 24.2268L46.3577 24.2159L50.3692 29.893L51.4306 31.4388H51.4469L51.4034 24.1832L52.8458 24.1724L52.8839 33.5888L51.4959 33.5997L47.0707 27.4273C46.7931 27.0245 46.57 26.7469 46.2869 26.3387L46.2325 26.4149H46.2434Z" fill="white"/>
<path d="M55.8015 24.6568L55.5184 20.9011L56.9064 20.8903L56.6506 24.646H55.8015V24.6568Z" fill="white"/>
<path d="M62.0337 33.5399L61.9684 25.2502L58.6536 25.2719V24.1235L66.7147 24.0745V25.2229L63.4489 25.2447L63.4816 33.5345L62.0391 33.5454L62.0337 33.5399Z" fill="white"/>
<path d="M79.0867 31.6402L82.407 23.9982L84.0725 23.9873L84.127 33.4038L82.6846 33.4147L82.6465 26.6979H82.5703L79.5929 33.4364H78.4989L75.4235 26.7088H75.3473L75.3909 33.4637L73.9485 33.4745L73.894 24.0581L75.5759 24.0472L78.9887 31.6511H79.0813L79.0867 31.6402Z" fill="white"/>
<path d="M86.9629 33.3875L86.9084 23.9492L88.4053 23.9384L88.4597 33.3766L86.9629 33.3875Z" fill="white"/>
<path d="M92.5474 26.3606C92.5474 27.2859 93.7176 27.5199 94.8335 27.8628C96.4283 28.3527 97.985 29.0277 97.9959 30.6769C98.0068 32.5112 96.3847 33.442 94.164 33.4583C93.0699 33.4637 91.8507 33.2678 90.7729 32.7398L91.2302 31.6621C92.6943 32.2663 93.4346 32.2989 94.066 32.2935C95.6227 32.2826 96.5426 31.9288 96.5371 30.7041C96.5371 29.8877 95.7152 29.4522 94.4742 29.0875C92.7324 28.5813 91.0832 28.1622 91.0723 26.5184C91.0614 24.7984 92.5365 23.7697 94.5722 23.7588C95.3887 23.7588 96.5535 23.8949 97.4788 24.3684L97.0433 25.408C96.0799 24.9671 95.0947 24.8637 94.5613 24.8692C93.3965 24.8746 92.5474 25.3046 92.5528 26.3606H92.5474Z" fill="white"/>
<path d="M101.447 26.3061C101.447 27.2314 102.617 27.4655 103.733 27.8084C105.328 28.2983 106.884 28.9732 106.895 30.6225C106.906 32.4568 105.284 33.3875 103.063 33.4039C101.969 33.4093 100.75 33.2134 99.6724 32.6854L100.13 31.6077C101.594 32.2118 102.334 32.2445 102.965 32.239C104.522 32.2282 105.442 31.8744 105.437 30.6497C105.437 29.8332 104.615 29.3978 103.374 29.0331C101.632 28.5269 99.9826 28.1078 99.9717 26.464C99.9608 24.744 101.436 23.7152 103.472 23.7043C104.288 23.7043 105.453 23.8404 106.378 24.314L105.943 25.3536C104.979 24.9181 103.994 24.8093 103.461 24.8147C102.296 24.8202 101.447 25.2502 101.452 26.3061H101.447Z" fill="white"/>
<path d="M118.87 33.3059C115.593 33.3276 114.341 31.4661 114.325 28.5759C114.309 25.9686 115.463 23.6281 118.81 23.6064C122.158 23.5846 123.154 25.9305 123.17 28.4833C123.186 31.2212 121.755 33.2841 118.87 33.3004V33.3059ZM118.821 24.7004C116.432 24.7167 115.855 26.6218 115.866 28.6031C115.882 30.9708 116.775 32.2445 118.865 32.2281C120.77 32.2173 121.651 30.5462 121.635 28.5269C121.624 26.7524 121.167 24.6786 118.816 24.695L118.821 24.7004Z" fill="white"/>
<path d="M133.686 29.6862C133.697 31.7981 132.412 33.2079 129.691 33.2242C126.86 33.2405 125.685 31.9342 125.674 29.7298L125.636 23.7152L127.094 23.7043L127.133 29.7189C127.143 31.3464 128.074 32.1737 129.68 32.1628C131.307 32.1519 132.227 31.3137 132.216 29.6862L132.178 23.6717L133.621 23.6608L133.675 29.6753L133.686 29.6862Z" fill="white"/>
<path d="M138.797 33.0773L138.732 24.7875L135.417 24.8093V23.6608L143.478 23.6118V24.7603L140.212 24.7821L140.245 33.0718L138.802 33.0827L138.797 33.0773Z" fill="white"/>
<path d="M72.9797 70.4329C71.0637 70.3785 69.0117 69.9485 67.3788 69.0068L68.2333 66.748C70.5194 67.8039 72.4027 67.9781 73.6601 67.9781C75.9461 67.9781 77.3722 67.178 77.3722 65.0062C77.3722 63.1773 75.9734 62.5514 74.003 62.0071C70.748 61.0926 67.7489 60.3197 67.7489 56.6675C67.7489 53.6411 69.7193 51.6109 72.9742 51.2407V48.4974H74.9446V51.2081C76.3707 51.2952 78.0308 51.6381 79.4025 52.3783L78.5479 54.5773C76.632 53.7772 75.3202 53.6629 74.0901 53.6629C72.234 53.6629 70.8896 54.6318 70.8896 56.5477C70.8896 58.2895 72.8055 58.8066 74.716 59.291C77.2307 59.9768 80.5455 60.8042 80.5455 65.0062C80.5455 68.2611 78.2594 70.09 74.9446 70.4057V73.2034H72.9742V70.4329H72.9797Z" fill="white"/>
<path d="M83.7243 86.6913V83.1152L88.819 78.3634C94.1586 73.3667 99.4493 67.4392 99.4983 62.5895C99.4983 58.9154 97.2448 57.1519 93.6198 57.1519C91.7582 57.1519 88.672 57.6417 85.2429 59.6992L83.4794 56.2211C87.3984 53.4288 91.5133 52.498 94.5505 52.498C100.87 52.498 105.132 55.7802 105.132 62.1486C105.132 70.0355 96.3141 77.4816 91.3174 82.3804L91.4153 82.6253H106.503V86.6913H83.7243Z" fill="white"/>
<path d="M121.445 87.0832C111.157 87.0832 108.757 78.8533 108.757 70.1336C108.757 62.0017 111.206 52.5961 121.494 52.5961C131.781 52.5961 133.936 62.2956 133.936 69.9866C133.936 78.5104 130.899 87.0832 121.445 87.0832ZM121.494 56.956C115.076 56.956 114.243 64.598 114.243 70.1826C114.243 77.1878 115.468 82.7723 121.494 82.7723C127.127 82.7723 128.45 76.355 128.45 70.1336C128.45 64.8429 127.96 56.956 121.494 56.956Z" fill="white"/>
<path d="M149.318 87.0832C139.031 87.0832 136.631 78.8533 136.631 70.1336C136.631 62.0017 139.08 52.5961 149.367 52.5961C159.655 52.5961 161.81 62.2956 161.81 69.9866C161.81 78.5104 158.773 87.0832 149.318 87.0832ZM149.367 56.956C142.95 56.956 142.117 64.598 142.117 70.1826C142.117 77.1878 143.342 82.7723 149.367 82.7723C155.001 82.7723 156.324 76.355 156.324 70.1336C156.324 64.8429 155.834 56.956 149.367 56.956Z" fill="white"/>
<path d="M114.929 107.538C114.292 107.789 113.242 107.941 112.436 107.952C109.693 107.99 108.713 106.417 108.681 104.104C108.659 102.427 109.372 100.027 112.404 99.9833C113.362 99.9724 114.096 100.114 114.635 100.288L114.434 101.203C113.579 100.985 112.877 100.963 112.453 100.968C110.684 100.99 109.922 102.16 109.949 104.082C109.971 105.851 110.569 107.016 112.611 106.988C113.068 106.983 113.982 106.88 114.679 106.673L114.935 107.538H114.929Z" fill="white"/>
<path d="M121.347 107.756L120.568 105.633L117.477 105.677C117.33 106.123 117.199 106.428 116.742 107.821L115.463 107.838L118.239 100.027L119.703 100.005L122.675 107.74L121.347 107.756ZM119.273 101.959C119.197 101.779 119.033 101.246 118.968 101.061H118.952C118.892 101.246 118.734 101.779 118.658 101.964C118.304 102.993 118.103 103.788 117.754 104.811L120.285 104.779C119.888 103.761 119.665 102.988 119.273 101.959Z" fill="white"/>
<path d="M124.776 101.948C124.787 102.71 125.75 102.895 126.665 103.173C127.982 103.565 129.266 104.114 129.288 105.47C129.31 106.978 127.976 107.761 126.147 107.783C125.249 107.794 124.242 107.642 123.35 107.212L123.72 106.324C124.928 106.809 125.543 106.831 126.06 106.825C127.339 106.809 128.096 106.509 128.085 105.502C128.074 104.833 127.399 104.474 126.376 104.185C124.939 103.777 123.578 103.445 123.557 102.09C123.535 100.674 124.743 99.8199 126.42 99.7927C127.089 99.7818 128.053 99.8907 128.82 100.277L128.466 101.137C127.672 100.783 126.86 100.702 126.42 100.707C125.462 100.718 124.765 101.083 124.776 101.948Z" fill="white"/>
<path d="M135.825 107.555L135.776 103.957L132.01 104.006L132.075 107.604L130.839 107.62L130.73 99.8635L131.966 99.8472L131.993 103.064L135.76 103.015L135.716 99.7982L136.936 99.7819L137.044 107.538L135.825 107.555Z" fill="white"/>
<path d="M146.738 107.5C144.039 107.538 142.999 106.014 142.966 103.636C142.939 101.486 143.87 99.5533 146.63 99.5152C149.389 99.4771 150.222 101.404 150.249 103.505C150.282 105.758 149.117 107.468 146.738 107.5ZM146.64 100.413C144.676 100.441 144.207 102.019 144.229 103.646C144.256 105.595 145.002 106.64 146.722 106.613C148.29 106.591 149.003 105.209 148.981 103.549C148.959 102.084 148.573 100.386 146.635 100.408L146.64 100.413Z" fill="white"/>
<path d="M152.133 107.331L152.024 99.5587L157.358 99.4879L157.369 100.462L153.254 100.517L153.286 102.743L156.547 102.699L156.558 103.646L153.297 103.69L153.346 107.315L152.127 107.331H152.133Z" fill="white"/>
<path d="M158.757 107.239L158.648 99.4661L163.982 99.3954L163.993 100.37L159.878 100.424L159.911 102.65L163.171 102.607L163.182 103.554L159.922 103.597L159.971 107.222L158.751 107.239H158.757Z" fill="white"/>
<path d="M165.386 107.152L165.277 99.3791L170.639 99.3083L170.65 100.283L166.535 100.337L166.567 102.58L170.089 102.531L170.1 103.461L166.578 103.51L166.616 106.161L170.927 106.101L170.944 107.076L165.381 107.152H165.386Z" fill="white"/>
<path d="M176.496 103.614L178.417 106.972L177.122 106.988L175.325 103.766L173.605 103.788L173.649 107.032L172.402 107.048L172.294 99.2757L175.418 99.2321C177.263 99.2049 178.161 100.152 178.178 101.42C178.188 102.335 177.606 103.32 176.501 103.608L176.496 103.614ZM175.314 102.901C176.262 102.89 176.942 102.525 176.926 101.475C176.915 100.517 176.174 100.13 175.244 100.141L173.535 100.163L173.573 102.923L175.309 102.901H175.314Z" fill="white"/>
</g>
</g>
</g>
<defs>
<clipPath id="clip0_1_269">
<rect width="193.68" height="128" fill="white" transform="translate(0.5 0.0400391)"/>
</clipPath>
<clipPath id="clip1_1_269">
<rect width="193.68" height="128" fill="white" transform="translate(0.5 0.0400391)"/>
</clipPath>
<clipPath id="clip2_1_269">
<rect width="193.68" height="93.7456" fill="white" transform="translate(0.5 17.1672)"/>
</clipPath>
</defs>
</svg>
