<svg width="73" height="81" viewBox="0 0 73 81" fill="none" xmlns="http://www.w3.org/2000/svg">
<g clip-path="url(#clip0_1_572)">
<g clip-path="url(#clip1_1_572)">
<g clip-path="url(#clip2_1_572)">
<path d="M71.3963 57.3201L62.1672 47.3219V40.0155C62.1672 21.9419 53.3227 10.7901 38.3254 10.021V2.33008H34.4799V10.021C19.8672 10.7901 11.0227 21.9419 11.0227 40.0155V47.3219L2.17813 57.3201V67.7028H22.559C24.0972 75.3937 31.7881 80.3928 39.479 78.8546C45.2472 77.701 49.4772 73.0864 50.6309 67.7028H71.0118V57.3201H71.3963ZM36.7872 75.3937C32.1727 75.3937 27.9427 72.3174 26.789 67.7028H46.7854C45.6318 71.9328 41.4018 75.3937 36.7872 75.3937ZM67.5508 63.8573H6.02359V58.8583L14.8681 48.8601V40.0155C14.8681 23.4801 22.9436 13.8664 36.7872 13.8664C50.6309 13.8664 58.3218 23.0955 58.3218 40.0155V48.8601L67.1663 58.8583V63.8573H67.5508Z" fill="#E31837"/>
</g>
</g>
</g>
<defs>
<clipPath id="clip0_1_572">
<rect width="71.91" height="80" fill="white" transform="translate(0.639954 0.400024)"/>
</clipPath>
<clipPath id="clip1_1_572">
<rect width="71.91" height="80" fill="white" transform="translate(0.639954 0.400024)"/>
</clipPath>
<clipPath id="clip2_1_572">
<rect width="71.91" height="79.9855" fill="white" transform="translate(0.639954 0.407349)"/>
</clipPath>
</defs>
</svg>
