<svg width="235" height="24" viewBox="0 0 235 24" fill="none" xmlns="http://www.w3.org/2000/svg">
<g clip-path="url(#clip0_1_103)">
<g clip-path="url(#clip1_1_103)">
<g clip-path="url(#clip2_1_103)">
<path d="M216.189 22.4742C216.189 21.9538 216.612 21.531 217.165 21.531C217.717 21.531 218.14 21.9538 218.14 22.4742C218.14 22.9946 217.717 23.4499 217.165 23.4499C216.612 23.4499 216.189 23.0271 216.189 22.4742ZM216.384 22.4742C216.384 22.897 216.742 23.2548 217.197 23.2548C217.62 23.2548 217.978 22.9296 217.978 22.4742C217.978 22.0514 217.62 21.7262 217.197 21.7262C216.709 21.7262 216.384 22.0839 216.384 22.4742Z" fill="#E31837"/>
<path d="M217.653 23.0272H217.457L217.132 22.5393H216.937V23.0272H216.807V21.9539H217.295C217.392 21.9539 217.49 21.9539 217.555 22.0189C217.653 22.0514 217.685 22.149 217.685 22.2466C217.685 22.4417 217.522 22.5393 217.327 22.5393L217.653 23.0272ZM217.132 22.4092C217.295 22.4092 217.49 22.4417 217.49 22.2466C217.49 22.1165 217.36 22.084 217.23 22.084H216.937V22.4092H217.132Z" fill="#E31837"/>
<path d="M212.514 23.4499C219.344 17.5955 228.938 11.9038 234.207 9.85475C233.394 9.33436 232.126 8.5863 230.695 7.77319C223.897 10.0174 215.961 14.9936 208.871 20.6203C210.074 21.531 211.343 22.4742 212.514 23.4499Z" fill="#E31837"/>
<path d="M209.391 7.54565C208.383 7.05779 207.277 6.60245 206.432 6.21216C203.862 7.4806 200.512 9.39954 196.284 12.4243C197.195 12.9122 198.17 13.4976 199.211 14.083C202.464 11.6762 205.749 9.39954 209.391 7.54565Z" fill="#012169"/>
<path d="M215.473 4.74853C214.237 4.06552 209.944 2.47183 206.984 1.78882C206.106 2.11406 204.87 2.60193 204.025 2.95969C205.098 3.25241 209.099 4.32571 212.514 6.0495C213.392 5.62668 214.628 5.10629 215.473 4.74853Z" fill="#E31837"/>
<path d="M200.935 4.32568C197.13 6.08199 193.129 8.48879 190.95 9.88733C191.731 10.2451 192.511 10.5378 193.585 11.0582C198.398 7.80578 202.171 5.8218 203.667 5.17131C202.594 4.78102 201.586 4.52083 200.935 4.32568Z" fill="#012169"/>
<path d="M218.335 3.74029C219.214 3.44757 220.222 3.18738 221.1 2.92718C218.563 1.85388 215.376 0.715534 212.514 0C212.058 0.130097 210.692 0.487864 209.749 0.780583C210.725 1.0733 213.945 1.82136 218.335 3.74029ZM202.301 15.9694C203.342 16.5874 204.448 17.433 205.521 18.1485C212.644 12.6194 219.669 8.35874 227.377 5.95194C226.304 5.39903 225.361 4.91117 224.157 4.32573C219.539 5.4966 211.635 8.65146 202.301 15.9694Z" fill="#E31837"/>
<path d="M0.0325928 21.7589H5.23648C7.87094 21.7589 9.10686 20.3928 9.10686 18.4739C9.10686 16.9127 8.29376 15.872 6.6025 15.5467C8.09861 15.189 8.78162 14.2783 8.78162 12.9448C8.78162 11.2535 7.5457 9.8875 4.91123 9.8875H0.065117V21.7589H0.0325928ZM4.55347 16.7176C5.52919 16.7176 6.2122 17.2055 6.2122 18.1812C6.2122 19.222 5.56172 19.6448 4.55347 19.6448H2.8622V16.6851H4.55347V16.7176ZM4.22822 11.9691C5.20395 11.9691 5.88696 12.3919 5.88696 13.3676C5.88696 14.3433 5.23648 14.7661 4.22822 14.7661H2.8622V11.9691H4.22822ZM19.6122 9.85497H16.685L12.2292 21.7589H15.1889L16.002 19.287H20.2952L21.1083 21.7589H24.1006L19.6122 9.85497ZM18.1486 12.7171L19.5472 17.1079H16.685L18.1486 12.7171ZM38.9316 9.85497H36.2321V17.8234L31.1583 9.85497H28.1336V21.7589H30.8331V13.8229L35.9069 21.7589H38.9316V9.85497ZM51.3884 21.7589L47.4855 15.7093V21.7589H44.5908V9.85497H47.4855V15.5792L51.1933 9.85497H54.4132L50.5103 15.5792L54.7709 21.7589H51.3884ZM65.0161 15.8069C65.0161 18.1812 66.4472 19.6448 68.301 19.6448C70.1549 19.6448 71.586 18.1812 71.586 15.8069C71.586 13.4326 70.1549 11.9691 68.301 11.9691C66.4472 11.9691 65.0161 13.4326 65.0161 15.8069ZM61.9588 15.8069C61.9913 12.3268 64.4306 9.59478 68.301 9.59478C72.1714 9.59478 74.6107 12.3268 74.6433 15.8069C74.6107 19.287 72.1714 22.0191 68.301 22.0191C64.4306 22.0191 61.9913 19.287 61.9588 15.8069ZM78.6112 21.7589H81.5059V17.0754H85.2787V14.7987H81.5059V12.1317H86.0593L86.5797 9.85497H78.6112V21.7589ZM100.077 9.85497H97.1501L92.6942 21.7589H95.654L96.4671 19.287H100.76L101.573 21.7589H104.566L100.077 9.85497ZM98.6137 12.7171L100.012 17.1079H97.1501L98.6137 12.7171ZM121.738 9.85497H118.356L115.266 16.2948L112.176 9.85497H108.794V21.7589H111.396V13.7904L115.234 21.7589L119.071 13.7904V21.7589H121.771L121.738 9.85497ZM127.365 21.7589H135.496V19.4822H130.26V16.8152H134.39V14.6035H130.26V12.1317H135.041L135.561 9.85497H127.365V21.7589ZM146.522 21.7589H149.677L146.717 16.7176C148.343 16.2623 149.124 15.1239 149.124 13.4652C149.124 11.3186 147.823 9.8875 144.896 9.8875H140.31V21.7914H143.139V17.1079H143.92L146.522 21.7589ZM144.343 12.0666C145.546 12.0666 146.164 12.587 146.164 13.5953C146.164 14.6035 145.546 15.1239 144.343 15.1239H143.107V12.0666H144.343ZM154.003 21.7589H156.897V9.8875H154.003V21.7589ZM171.143 18.5715C170.037 19.3521 169.061 19.6123 168.053 19.6123C165.841 19.6123 164.28 18.0836 164.28 15.8069C164.28 13.5302 165.809 12.0016 167.955 12.0016C168.931 12.0016 169.907 12.2618 170.98 13.0424V10.3428C170.004 9.78993 168.866 9.56226 167.598 9.56226C163.662 9.56226 161.19 12.2943 161.158 15.7744C161.19 19.287 163.597 21.9865 167.598 21.9865C168.931 21.9865 170.069 21.7589 171.11 21.2059V18.5715H171.143ZM181.746 9.85497H178.819L174.363 21.7589H177.322L178.135 19.287H182.429L183.242 21.7589H186.234L181.746 9.85497ZM180.282 12.7171L181.681 17.1079H178.819L180.282 12.7171Z" fill="#012169"/>
</g>
</g>
</g>
<defs>
<clipPath id="clip0_1_103">
<rect width="234.24" height="23.45" fill="white"/>
</clipPath>
<clipPath id="clip1_1_103">
<rect width="234.24" height="23.45" fill="white"/>
</clipPath>
<clipPath id="clip2_1_103">
<rect width="234.175" height="23.45" fill="white" transform="translate(0.0325928)"/>
</clipPath>
</defs>
</svg>
