<svg width="41" height="41" viewBox="0 0 41 41" fill="none" xmlns="http://www.w3.org/2000/svg">
<g clip-path="url(#clip0_1_630)">
<g clip-path="url(#clip1_1_630)">
<g clip-path="url(#clip2_1_630)">
<path fill-rule="evenodd" clip-rule="evenodd" d="M20.8601 3.73337C30.0607 3.74347 37.5167 11.1995 37.5268 20.4C37.5268 29.6048 30.0649 37.0667 20.8601 37.0667C11.6554 37.0667 4.19348 29.6048 4.19348 20.4C4.19348 11.1953 11.6554 3.73337 20.8601 3.73337ZM20.8601 5.40003C12.5759 5.40003 5.86015 12.1158 5.86015 20.4C5.86015 28.6843 12.5759 35.4 20.8601 35.4C29.1402 35.3899 35.85 28.6801 35.8601 20.4C35.8601 12.1158 29.1444 5.40003 20.8601 5.40003ZM21.6935 10.4V13.6334C23.7744 13.728 25.4741 15.3286 25.6935 17.4V17.9H24.0268V17.4C24.0268 16.225 22.5768 15.2334 20.8601 15.2334C19.1435 15.2334 17.6935 16.2334 17.6935 17.4L17.6936 17.4544C17.6976 17.9703 17.8101 19.1746 20.9601 19.5667C24.1001 19.965 25.6935 21.2534 25.6935 23.4C25.4741 25.4715 23.7744 27.072 21.6935 27.1667V30.4H20.0268V27.1667C17.9459 27.072 16.2462 25.4715 16.0268 23.4V22.9H17.6935V23.4C17.6935 24.575 19.1435 25.5667 20.8601 25.5667C22.5768 25.5667 24.0268 24.575 24.0268 23.4L24.0267 23.3453C24.0226 22.8263 23.9099 21.6203 20.7535 21.2234C17.6168 20.8334 16.0268 19.5484 16.0268 17.4C16.2462 15.3286 17.9459 13.728 20.0268 13.6334V10.4H21.6935Z" fill="black"/>
</g>
</g>
</g>
<defs>
<clipPath id="clip0_1_630">
<rect width="40" height="40" fill="white" transform="translate(0.860107 0.400024)"/>
</clipPath>
<clipPath id="clip1_1_630">
<rect width="40" height="40" fill="white" transform="translate(0.860107 0.400024)"/>
</clipPath>
<clipPath id="clip2_1_630">
<rect width="40" height="40" fill="white" transform="translate(0.860107 0.400024)"/>
</clipPath>
</defs>
</svg>
