<svg width="81" height="81" viewBox="0 0 81 81" fill="none" xmlns="http://www.w3.org/2000/svg">
<g clip-path="url(#clip0_1_549)">
<g clip-path="url(#clip1_1_549)">
<g clip-path="url(#clip2_1_549)">
<path d="M40.8001 19.3167C36.6302 19.3167 32.5539 20.5532 29.0868 22.8698C25.6197 25.1865 22.9174 28.4793 21.3216 32.3317C19.7259 36.1842 19.3084 40.4234 20.1219 44.5131C20.9354 48.6029 22.9434 52.3596 25.8919 55.3082C28.8405 58.2567 32.5972 60.2647 36.6869 61.0782C40.7767 61.8917 45.0158 61.4742 48.8683 59.8784C52.7208 58.2827 56.0136 55.5804 58.3302 52.1133C60.6469 48.6461 61.8834 44.5699 61.8834 40.4C61.8764 34.8105 59.6528 29.452 55.7005 25.4996C51.7481 21.5472 46.3896 19.3237 40.8001 19.3167ZM40.8001 58.15C37.2895 58.15 33.8577 57.109 30.9387 55.1586C28.0197 53.2082 25.7447 50.436 24.4012 47.1926C23.0578 43.9492 22.7063 40.3803 23.3911 36.9371C24.076 33.494 25.7666 30.3312 28.2489 27.8488C30.7313 25.3665 33.8941 23.6759 37.3372 22.991C40.7804 22.3062 44.3493 22.6577 47.5927 24.0011C50.8361 25.3446 53.6083 27.6196 55.5587 30.5386C57.5091 33.4576 58.5501 36.8894 58.5501 40.4C58.5457 45.1062 56.6742 49.6184 53.3464 52.9463C50.0185 56.2741 45.5063 58.1456 40.8001 58.15Z" fill="#012169"/>
<path d="M42.4667 30.92V27.0667H39.1334V30.92C37.7496 31.0803 36.4634 31.7129 35.4919 32.7112C34.5203 33.7095 33.9228 35.0124 33.8001 36.4C33.8001 39.54 36.1334 41.4933 40.5867 42.0467C44.4601 42.5367 44.4601 43.8867 44.4601 44.38C44.4601 45.62 42.7467 46.7133 40.7934 46.7133C38.8401 46.7133 37.1267 45.6233 37.1267 44.38V43.7333H33.7934V44.4C33.9154 45.7882 34.5126 47.0918 35.4842 48.0908C36.4559 49.0898 37.7424 49.7229 39.1267 49.8833V53.7333H42.4601V49.88C43.8451 49.7211 45.1328 49.0891 46.1057 48.0907C47.0786 47.0923 47.6771 45.7886 47.8001 44.4C47.8001 41.26 45.4667 39.3067 41.0067 38.7333C37.1401 38.25 37.1401 36.9 37.1401 36.4C37.1401 35.16 38.8534 34.0667 40.8067 34.0667C42.7601 34.0667 44.4734 35.1567 44.4734 36.4V37.0667H47.8067V36.4C47.6838 35.0113 47.0853 33.7077 46.1124 32.7093C45.1394 31.7108 43.8517 31.0788 42.4667 30.92Z" fill="#012169"/>
<path d="M74.1334 40.4L67.2167 31.3733L67.7667 19.8L57.1334 16.77L51.1001 7.06665L40.8001 11.1933L30.5001 7.06665L24.4667 16.77L13.8334 19.8L14.3834 31.3733L7.46674 40.4L14.3834 49.4267L13.8334 61L24.4734 64.03L30.5001 73.7333L40.8001 69.6066L51.1001 73.7333L57.1334 64.03L67.7734 61L67.2234 49.4267L74.1334 40.4ZM63.8901 49.5833L64.3134 58.52L56.2167 60.8233L54.9767 61.1766L54.3101 62.27L49.7567 69.6033L42.0534 66.5166L40.8001 66.0166L39.5601 66.5133L31.8567 69.6L27.3034 62.2666L26.6367 61.1733L25.4001 60.82L17.3001 58.5166L17.7234 49.58L17.7834 48.3633L17.0267 47.4L11.6667 40.4L17.0267 33.4L17.7701 32.43L17.7101 31.2133L17.2867 22.28L25.3867 19.9767L26.6234 19.6233L27.2901 18.53L31.8434 11.1967L39.5467 14.2833L40.8001 14.7833L42.0401 14.2866L49.7434 11.2L54.2967 18.5333L54.9634 19.6267L56.2034 19.98L64.3001 22.2833L63.8767 31.22L63.8167 32.4366L64.5601 33.4067L69.9334 40.4L64.5734 47.4L63.8301 48.37L63.8901 49.5833Z" fill="#012169"/>
</g>
</g>
</g>
<defs>
<clipPath id="clip0_1_549">
<rect width="80" height="80" fill="white" transform="translate(0.800049 0.400024)"/>
</clipPath>
<clipPath id="clip1_1_549">
<rect width="80" height="80" fill="white" transform="translate(0.800049 0.400024)"/>
</clipPath>
<clipPath id="clip2_1_549">
<rect width="80" height="80" fill="white" transform="translate(0.800049 0.400024)"/>
</clipPath>
</defs>
</svg>
