<svg width="250" height="40" viewBox="0 0 250 40" fill="none" xmlns="http://www.w3.org/2000/svg">
<g clip-path="url(#clip0_1_1551)">
<g clip-path="url(#clip1_1_1551)">
<path d="M132.295 31.4384H116.892V8.0628H126.229V4.8728H117.798C116.273 4.8728 115.022 6.1216 115.022 7.6508V36.4844C115.022 38.0124 116.273 39.2608 117.8 39.2608H131.388C132.916 39.2608 134.167 38.012 134.169 36.482L134.166 12.5404H132.293L132.295 31.4384Z" fill="#C41C30"/>
<path d="M130.804 8.25954C130.899 8.19234 130.997 8.12834 131.093 8.06274H126.23V10.6043C126.23 11.6719 127.098 12.5407 128.169 12.5407H132.292L132.292 8.84154C132.197 8.91474 132.1 8.98594 132.006 9.06034C131.615 8.77834 131.215 8.50874 130.804 8.25954Z" fill="#C41C30"/>
<path d="M136.076 0.755615H128.169C127.098 0.755615 126.23 1.62482 126.23 2.69482V4.87282H129.846C129.858 4.86882 129.87 4.86442 129.882 4.86042C129.894 4.86402 129.906 4.86882 129.918 4.87282H130.738C130.429 4.76082 130.118 4.65522 129.802 4.56242C130.081 4.46442 130.364 4.37642 130.647 4.29482C131.453 4.53922 132.236 4.84722 132.992 5.21242C132.934 5.23202 132.876 5.25482 132.818 5.27482C132.907 5.32922 132.993 5.38762 133.076 5.45082C133.662 5.23082 134.259 5.03602 134.868 4.87482C135.217 5.02402 135.558 5.18322 135.896 5.35202C135.152 5.57602 134.426 5.84282 133.72 6.15002C133.782 6.24602 133.838 6.34682 133.888 6.45082C134.637 6.09322 135.408 5.77642 136.202 5.50922C136.514 5.67482 136.822 5.84922 137.124 6.03242C136.092 6.46642 135.103 6.97842 134.16 7.55761C134.161 7.58802 134.165 7.61801 134.165 7.64922L134.165 12.5412H136.076C137.148 12.5412 138.014 11.6724 138.014 10.6048V2.69482C138.014 1.62522 137.148 0.755615 136.076 0.755615ZM133.42 5.07482C132.658 4.71802 131.872 4.41642 131.062 4.18322C131.315 4.11402 131.575 4.05602 131.835 4.00242C132.652 4.22682 133.452 4.50802 134.225 4.84562C133.952 4.91602 133.684 4.99282 133.42 5.07482Z" fill="#C41C30"/>
<path d="M131.093 8.06273C131.979 7.45633 132.912 6.91674 133.888 6.45114C133.838 6.34714 133.782 6.24634 133.72 6.15034C132.546 6.66114 131.429 7.28433 130.385 8.00753C130.014 7.79393 129.635 7.59073 129.252 7.40033C130.442 6.61193 131.725 5.95794 133.075 5.45114C132.993 5.38754 132.907 5.32914 132.818 5.27514C132.617 5.34473 132.416 5.41514 132.216 5.49154C131.736 5.26034 131.242 5.05634 130.738 4.87354H129.918C130.159 4.94874 130.396 5.02994 130.631 5.11754C129.696 5.44914 128.799 5.87114 127.951 6.36994C127.676 6.25474 127.4 6.14874 127.122 6.04834C127.985 5.56874 128.9 5.17754 129.846 4.87354H126.23V8.06354H131.093V8.06273ZM130.985 5.24994C131.285 5.36834 131.577 5.49314 131.868 5.62914C130.941 6.00354 130.049 6.45034 129.194 6.95794C128.906 6.80634 128.613 6.66314 128.317 6.53034C129.17 6.03514 130.06 5.60554 130.985 5.24994Z" fill="#B51F31"/>
<path d="M134.16 7.55762C133.514 7.95402 132.891 8.38282 132.292 8.84202L132.292 12.5412H134.165L134.165 7.64922C134.165 7.61802 134.161 7.58802 134.16 7.55762ZM132.888 9.06082C132.777 9.06082 132.688 8.97322 132.688 8.86282C132.688 8.75602 132.777 8.66922 132.888 8.66922C133 8.66922 133.09 8.75642 133.09 8.86282C133.09 8.97322 133 9.06082 132.888 9.06082Z" fill="#B51F31"/>
<path d="M132.888 8.70752C132.796 8.70752 132.724 8.77752 132.724 8.86272C132.724 8.95272 132.797 9.02232 132.888 9.02232C132.978 9.02232 133.05 8.95272 133.05 8.86272C133.05 8.77712 132.978 8.70752 132.888 8.70752ZM132.988 8.97352H132.95L132.886 8.87272H132.846V8.97352H132.814V8.75552H132.91C132.932 8.75552 132.95 8.75592 132.966 8.76592C132.983 8.77392 132.992 8.79432 132.992 8.81272C132.992 8.85552 132.959 8.87112 132.919 8.87272L132.988 8.97352Z" fill="#C41C30"/>
<path d="M132.904 8.78076H132.846V8.84596H132.884C132.914 8.84596 132.959 8.85196 132.959 8.81276C132.959 8.78436 132.934 8.78076 132.904 8.78076Z" fill="#C41C30"/>
<path d="M132.888 8.6687C132.777 8.6687 132.688 8.7559 132.688 8.8623C132.688 8.9727 132.777 9.0603 132.888 9.0603C133 9.0603 133.09 8.9727 133.09 8.8623C133.09 8.7559 133 8.6687 132.888 8.6687ZM132.888 9.0223C132.796 9.0223 132.724 8.9527 132.724 8.8627C132.724 8.7775 132.797 8.7075 132.888 8.7075C132.978 8.7075 133.05 8.7775 133.05 8.8627C133.05 8.9527 132.978 9.0223 132.888 9.0223Z" fill="white"/>
<path d="M132.992 8.81282C132.992 8.79442 132.984 8.77362 132.967 8.76602C132.95 8.75602 132.933 8.75562 132.91 8.75562H132.814V8.97362H132.846V8.87281H132.886L132.95 8.97362H132.989L132.92 8.87281C132.959 8.87161 132.992 8.85562 132.992 8.81282ZM132.884 8.84602H132.846V8.78082H132.904C132.934 8.78082 132.959 8.78442 132.959 8.81282C132.959 8.85202 132.914 8.84602 132.884 8.84602Z" fill="white"/>
<path d="M131.868 5.6292C131.577 5.4932 131.285 5.3684 130.985 5.25C130.06 5.6056 129.17 6.0352 128.317 6.5304C128.613 6.6632 128.907 6.806 129.194 6.958C130.049 6.4504 130.941 6.0036 131.868 5.6292Z" fill="white"/>
<path d="M129.882 4.86084C129.87 4.86444 129.858 4.86924 129.846 4.87324H129.918C129.906 4.86924 129.894 4.86444 129.882 4.86084Z" fill="white"/>
<path d="M127.951 6.3692C128.799 5.8704 129.696 5.4484 130.631 5.1168C130.397 5.0292 130.159 4.9484 129.918 4.8728H129.846C128.899 5.1764 127.985 5.568 127.121 6.0476C127.4 6.1484 127.676 6.254 127.951 6.3692Z" fill="white"/>
<path d="M132.818 5.27517C132.876 5.25517 132.934 5.23237 132.992 5.21277C132.236 4.84757 131.453 4.53957 130.647 4.29517C130.364 4.37677 130.081 4.46477 129.802 4.56277C130.118 4.65557 130.429 4.76157 130.738 4.87317H131.386C131.91 4.87237 132.399 5.02117 132.818 5.27517Z" fill="white"/>
<path d="M132.818 5.27529C132.399 5.02169 131.91 4.87249 131.386 4.87329H130.738C131.242 5.05609 131.736 5.26049 132.217 5.49129C132.416 5.41489 132.617 5.34449 132.818 5.27529Z" fill="white"/>
<path d="M131.062 4.18291C131.872 4.41651 132.658 4.71811 133.42 5.07451C133.685 4.99291 133.952 4.91611 134.225 4.84491C133.452 4.50731 132.652 4.22611 131.835 4.00171C131.575 4.05571 131.315 4.11371 131.062 4.18291Z" fill="white"/>
<path d="M131.093 8.06274C130.997 8.12834 130.899 8.19234 130.804 8.25954C131.215 8.50874 131.615 8.77834 132.006 9.06034C132.1 8.98594 132.196 8.91434 132.292 8.84154V8.06274H131.093Z" fill="white"/>
<path d="M137.124 6.03248C136.822 5.84928 136.514 5.67488 136.202 5.50928C135.408 5.77688 134.637 6.09328 133.888 6.45088C134.051 6.78848 134.147 7.16208 134.16 7.55728C135.103 6.97848 136.092 6.46648 137.124 6.03248Z" fill="white"/>
<path d="M132.292 8.06268V8.84148C132.891 8.38228 133.514 7.95348 134.16 7.55708C134.146 7.16228 134.05 6.78828 133.888 6.45068C132.912 6.91628 131.979 7.45628 131.093 8.06228L132.292 8.06268Z" fill="white"/>
<path d="M133.72 6.15044C134.426 5.84284 135.152 5.57604 135.896 5.35244C135.558 5.18364 135.216 5.02444 134.868 4.87524C134.259 5.03644 133.662 5.23164 133.076 5.45124C133.328 5.64564 133.546 5.88204 133.72 6.15044Z" fill="white"/>
<path d="M130.385 8.00757C131.43 7.28437 132.546 6.66157 133.72 6.15037C133.546 5.88197 133.328 5.64557 133.076 5.45117C131.726 5.95797 130.442 6.61197 129.253 7.40037C129.635 7.59077 130.014 7.79357 130.385 8.00757Z" fill="white"/>
</g>
</g>
<defs>
<clipPath id="clip0_1_1551">
<rect width="250" height="40" fill="white"/>
</clipPath>
<clipPath id="clip1_1_1551">
<rect width="40" height="40" fill="white" transform="translate(105)"/>
</clipPath>
</defs>
</svg>
