<svg width="21" height="20" viewBox="0 0 21 20" fill="none" xmlns="http://www.w3.org/2000/svg">
<g clip-path="url(#clip0_1_1735)">
<g clip-path="url(#clip1_1_1735)">
<g clip-path="url(#clip2_1_1735)">
<path d="M10.7608 10.2245H9.8687V9.24273C9.83943 8.19508 9.40412 7.19982 8.65472 6.46714C7.90532 5.73446 6.90049 5.32173 5.85245 5.31611C5.33598 5.31312 4.82405 5.41265 4.34632 5.60893C3.8686 5.80521 3.43457 6.09433 3.06938 6.45955C2.70419 6.82478 2.41511 7.25883 2.21887 7.73658C2.02264 8.21433 1.92316 8.72626 1.9262 9.24273V10.2245H1.0337C0.914608 10.2173 0.795343 10.2354 0.683786 10.2777C0.572229 10.32 0.47092 10.3855 0.386557 10.4698C0.302195 10.5542 0.2367 10.6555 0.194404 10.7671C0.152107 10.8786 0.133971 10.9979 0.141195 11.117V18.8795C0.140749 18.9851 0.161221 19.0897 0.20143 19.1874C0.241639 19.2851 0.300789 19.3738 0.375466 19.4485C0.450144 19.5231 0.538871 19.5823 0.636528 19.6225C0.734184 19.6627 0.838836 19.6832 0.944446 19.6827H10.6719C10.7776 19.6832 10.8822 19.6627 10.9799 19.6225C11.0775 19.5823 11.1662 19.5231 11.2409 19.4485C11.3156 19.3738 11.3748 19.2851 11.415 19.1874C11.4552 19.0897 11.4756 18.9851 11.4752 18.8795V11.117C11.502 11.0096 11.5037 10.8975 11.4801 10.7894C11.4565 10.6814 11.4082 10.5802 11.3391 10.4938C11.2699 10.4074 11.1818 10.3382 11.0815 10.2914C10.9812 10.2447 10.8714 10.2218 10.7608 10.2245ZM3.97745 9.24273C3.97127 8.99482 4.01555 8.74823 4.10759 8.51796C4.19963 8.28768 4.33752 8.07851 4.51287 7.90316C4.68823 7.7278 4.8974 7.58992 5.12767 7.49787C5.35795 7.40583 5.60453 7.36156 5.85245 7.36773C6.10036 7.36156 6.34694 7.40583 6.57722 7.49787C6.8075 7.58992 7.01666 7.7278 7.19202 7.90316C7.36737 8.07851 7.50526 8.28768 7.5973 8.51796C7.68934 8.74823 7.73362 8.99482 7.72745 9.24273V10.2245H3.97745V9.24273ZM4.68995 17.0052L5.3147 14.5959C5.16332 14.4977 5.03638 14.3663 4.94357 14.2116C4.85076 14.0569 4.79453 13.8831 4.7792 13.7034C4.77379 13.5611 4.79789 13.4193 4.84996 13.2869C4.90204 13.1544 4.98097 13.0342 5.08178 12.9337C5.18259 12.8333 5.3031 12.7548 5.43574 12.7032C5.56837 12.6516 5.71025 12.628 5.85245 12.6339C5.99459 12.6283 6.13635 12.6521 6.26883 12.704C6.4013 12.7558 6.52161 12.8345 6.6222 12.9351C6.72279 13.0357 6.80148 13.156 6.85332 13.2885C6.90516 13.4209 6.92904 13.5627 6.92345 13.7049C6.92685 13.8889 6.87845 14.0701 6.78376 14.2279C6.68907 14.3858 6.55191 14.5138 6.38795 14.5974L7.0127 17.0067H4.69257L4.68995 17.0052Z" fill="black"/>
</g>
</g>
</g>
<defs>
<clipPath id="clip0_1_1735">
<rect width="11.63" height="15" fill="white" transform="translate(0 5)"/>
</clipPath>
<clipPath id="clip1_1_1735">
<rect width="11.63" height="15" fill="white" transform="translate(0 5)"/>
</clipPath>
<clipPath id="clip2_1_1735">
<rect width="11.625" height="15" fill="white" transform="translate(0.00244141 5)"/>
</clipPath>
</defs>
</svg>
