<svg width="19" height="22" viewBox="0 0 19 22" fill="none" xmlns="http://www.w3.org/2000/svg">
<g clip-path="url(#clip0_1_1140)">
<path fill-rule="evenodd" clip-rule="evenodd" d="M6.7207 2.75946C6.71361 3.05955 6.76477 3.20396 7.02853 3.2043H13.3736C14.5224 3.29334 15.5507 3.59258 16.4199 4.17568C17.0235 4.58054 17.4639 5.06144 17.7962 5.59447C18.386 6.54073 18.7192 7.90517 18.8997 9.00677C18.9774 9.48306 19.0139 9.92825 18.9308 10.1347C18.8914 10.2319 18.8331 10.2976 18.754 10.3287C18.3177 10.5014 17.8566 9.90757 17.6108 9.62337C16.4406 8.2702 14.7399 7.71035 12.7346 7.60524H6.93398C6.7264 7.64079 6.65277 7.79255 6.67351 8.02668V9.64182C6.66141 10.1786 6.38763 10.3613 5.84491 10.1802L0.850292 6.30472L0.359075 5.92345L0.233419 5.82604C-0.168093 5.46903 -0.00302887 5.14398 0.357347 4.86337L0.738636 4.56669L5.52463 0.841652C6.10866 0.386895 6.7207 0.265216 6.7207 1.24531V2.75946ZM12.2789 19.2406C12.286 18.9403 12.235 18.7959 11.9713 18.7956H5.62626C4.47738 18.7065 3.44914 18.4075 2.57992 17.8242C1.97256 17.4168 1.53043 16.9326 1.19753 16.3958C0.595177 15.4241 0.20248 13.8425 0.05833 12.7074C0.0123541 12.3452 0.00284774 12.0296 0.0692191 11.8654C0.108454 11.7681 0.166875 11.7025 0.245864 11.6712C0.682117 11.4984 1.14326 12.0923 1.38904 12.3765C2.55935 13.7297 4.26012 14.2895 6.26543 14.3946H12.066C12.2734 14.3593 12.3472 14.2073 12.3265 13.9732V12.3581C12.3386 11.8213 12.6124 11.6386 13.1551 11.8197L18.1495 15.6952L18.6409 16.0764L18.7666 16.1739C19.1681 16.5309 19.0028 16.8559 18.6425 17.1365L18.2614 17.4332L13.4755 21.1582C12.8913 21.613 12.2793 21.7347 12.2793 20.7546V19.2406H12.2789Z" fill="black"/>
</g>
<defs>
<clipPath id="clip0_1_1140">
<rect width="19" height="21" fill="white" transform="translate(0 0.5)"/>
</clipPath>
</defs>
</svg>
