<svg width="25" height="24" viewBox="0 0 25 24" fill="none" xmlns="http://www.w3.org/2000/svg">
<path d="M2.65002 3H4.03602C4.54602 3 4.99102 3.343 5.12302 3.835L5.50602 5.272M5.50602 5.272C11.0767 5.11589 16.642 5.73515 22.042 7.112C21.218 9.566 20.239 11.95 19.118 14.25H7.90002M5.50602 5.272L7.90002 14.25M7.90002 14.25C7.10437 14.25 6.34131 14.5661 5.7787 15.1287C5.2161 15.6913 4.90002 16.4544 4.90002 17.25H20.65M6.40002 20.25C6.40002 20.4489 6.32101 20.6397 6.18035 20.7803C6.0397 20.921 5.84894 21 5.65002 21C5.45111 21 5.26035 20.921 5.11969 20.7803C4.97904 20.6397 4.90002 20.4489 4.90002 20.25C4.90002 20.0511 4.97904 19.8603 5.11969 19.7197C5.26035 19.579 5.45111 19.5 5.65002 19.5C5.84894 19.5 6.0397 19.579 6.18035 19.7197C6.32101 19.8603 6.40002 20.0511 6.40002 20.25ZM19.15 20.25C19.15 20.4489 19.071 20.6397 18.9304 20.7803C18.7897 20.921 18.5989 21 18.4 21C18.2011 21 18.0103 20.921 17.8697 20.7803C17.729 20.6397 17.65 20.4489 17.65 20.25C17.65 20.0511 17.729 19.8603 17.8697 19.7197C18.0103 19.579 18.2011 19.5 18.4 19.5C18.5989 19.5 18.7897 19.579 18.9304 19.7197C19.071 19.8603 19.15 20.0511 19.15 20.25Z" stroke="black" stroke-width="1.5" stroke-linecap="round" stroke-linejoin="round"/>
</svg>
