<svg width="25" height="24" viewBox="0 0 25 24" fill="none" xmlns="http://www.w3.org/2000/svg">
<path d="M12.5 7.5C11.9033 7.5 11.331 7.73705 10.909 8.15901C10.4871 8.58097 10.25 9.15326 10.25 9.75C10.25 10.3467 10.4871 10.919 10.909 11.341C11.331 11.7629 11.9033 12 12.5 12C13.0967 12 13.669 11.7629 14.091 11.341C14.5129 10.919 14.75 10.3467 14.75 9.75C14.75 9.15326 14.5129 8.58097 14.091 8.15901C13.669 7.73705 13.0967 7.5 12.5 7.5Z" fill="black"/>
<path fill-rule="evenodd" clip-rule="evenodd" d="M2 4.875C2 3.839 2.84 3 3.875 3H21.125C22.16 3 23 3.84 23 4.875V14.625C23 15.661 22.16 16.5 21.125 16.5H3.875C3.62877 16.5 3.38495 16.4515 3.15747 16.3573C2.92998 16.263 2.72328 16.1249 2.54917 15.9508C2.37506 15.7767 2.23695 15.57 2.14273 15.3425C2.0485 15.115 2 14.8712 2 14.625V4.875ZM8.75 9.75C8.75 8.75544 9.14509 7.80161 9.84835 7.09835C10.5516 6.39509 11.5054 6 12.5 6C13.4946 6 14.4484 6.39509 15.1517 7.09835C15.8549 7.80161 16.25 8.75544 16.25 9.75C16.25 10.7446 15.8549 11.6984 15.1517 12.4017C14.4484 13.1049 13.4946 13.5 12.5 13.5C11.5054 13.5 10.5516 13.1049 9.84835 12.4017C9.14509 11.6984 8.75 10.7446 8.75 9.75ZM19.25 9C19.0511 9 18.8603 9.07902 18.7197 9.21967C18.579 9.36032 18.5 9.55109 18.5 9.75V9.758C18.5 10.172 18.836 10.508 19.25 10.508H19.258C19.4569 10.508 19.6477 10.429 19.7883 10.2883C19.929 10.1477 20.008 9.95691 20.008 9.758V9.75C20.008 9.55109 19.929 9.36032 19.7883 9.21967C19.6477 9.07902 19.4569 9 19.258 9H19.25ZM5 9.75C5 9.55109 5.07902 9.36032 5.21967 9.21967C5.36032 9.07902 5.55109 9 5.75 9H5.758C5.95691 9 6.14768 9.07902 6.28833 9.21967C6.42898 9.36032 6.508 9.55109 6.508 9.75V9.758C6.508 9.95691 6.42898 10.1477 6.28833 10.2883C6.14768 10.429 5.95691 10.508 5.758 10.508H5.75C5.55109 10.508 5.36032 10.429 5.21967 10.2883C5.07902 10.1477 5 9.95691 5 9.758V9.75Z" fill="black"/>
<path d="M2.75 18C2.55109 18 2.36032 18.079 2.21967 18.2197C2.07902 18.3603 2 18.5511 2 18.75C2 18.9489 2.07902 19.1397 2.21967 19.2803C2.36032 19.421 2.55109 19.5 2.75 19.5C8.15 19.5 13.38 20.222 18.35 21.575C19.54 21.899 20.75 21.017 20.75 19.755V18.75C20.75 18.5511 20.671 18.3603 20.5303 18.2197C20.3897 18.079 20.1989 18 20 18H2.75Z" fill="black"/>
</svg>
