<svg width="25" height="24" viewBox="0 0 25 24" fill="none" xmlns="http://www.w3.org/2000/svg">
<path d="M22.65 6.75V17.25C22.65 17.8467 22.413 18.419 21.991 18.841C21.5691 19.2629 20.9968 19.5 20.4 19.5H5.40002C4.80329 19.5 4.23099 19.2629 3.80903 18.841C3.38708 18.419 3.15002 17.8467 3.15002 17.25V6.75M22.65 6.75C22.65 6.15326 22.413 5.58097 21.991 5.15901C21.5691 4.73705 20.9968 4.5 20.4 4.5H5.40002C4.80329 4.5 4.23099 4.73705 3.80903 5.15901C3.38708 5.58097 3.15002 6.15326 3.15002 6.75M22.65 6.75V6.993C22.6501 7.37715 22.5518 7.75491 22.3645 8.0903C22.1772 8.42569 21.9071 8.70754 21.58 8.909L14.08 13.524C13.7252 13.7425 13.3167 13.8582 12.9 13.8582C12.4833 13.8582 12.0748 13.7425 11.72 13.524L4.22002 8.91C3.89295 8.70854 3.62289 8.42669 3.43559 8.0913C3.24829 7.75591 3.14998 7.37815 3.15002 6.994V6.75" stroke="black" stroke-width="1.5" stroke-linecap="round" stroke-linejoin="round"/>
</svg>
