<svg width="25" height="24" viewBox="0 0 25 24" fill="none" xmlns="http://www.w3.org/2000/svg">
<path d="M16.65 9V5.25C16.65 4.65326 16.413 4.08097 15.991 3.65901C15.5691 3.23705 14.9968 3 14.4 3H8.40002C7.80329 3 7.23099 3.23705 6.80903 3.65901C6.38708 4.08097 6.15002 4.65326 6.15002 5.25V18.75C6.15002 19.3467 6.38708 19.919 6.80903 20.341C7.23099 20.7629 7.80329 21 8.40002 21H14.4C14.9968 21 15.5691 20.7629 15.991 20.341C16.413 19.919 16.65 19.3467 16.65 18.75V15M12.9 9L9.90002 12M9.90002 12L12.9 15M9.90002 12H22.65" stroke="black" stroke-width="1.5" stroke-linecap="round" stroke-linejoin="round"/>
</svg>
