<svg width="15" height="16" viewBox="0 0 15 16" fill="none" xmlns="http://www.w3.org/2000/svg">
<path fill-rule="evenodd" clip-rule="evenodd" d="M2.94995 2.9812C3.03784 2.89342 3.15698 2.84412 3.2812 2.84412C3.40542 2.84412 3.52456 2.89342 3.61245 2.9812L8.29995 7.6687C8.38773 7.75659 8.43704 7.87573 8.43704 7.99995C8.43704 8.12417 8.38773 8.24331 8.29995 8.3312L3.61245 13.0187C3.52359 13.1015 3.40607 13.1466 3.28463 13.1444C3.16319 13.1423 3.04732 13.0931 2.96144 13.0072C2.87556 12.9213 2.82636 12.8055 2.82422 12.684C2.82208 12.5626 2.86715 12.4451 2.94995 12.3562L7.3062 7.99995L2.94995 3.6437C2.86217 3.55581 2.81287 3.43667 2.81287 3.31245C2.81287 3.18823 2.86217 3.06909 2.94995 2.9812ZM6.69995 2.9812C6.78784 2.89342 6.90698 2.84412 7.0312 2.84412C7.15542 2.84412 7.27456 2.89342 7.36245 2.9812L12.05 7.6687C12.1377 7.75659 12.187 7.87573 12.187 7.99995C12.187 8.12417 12.1377 8.24331 12.05 8.3312L7.36245 13.0187C7.31954 13.0648 7.26779 13.1017 7.21029 13.1273C7.15279 13.1529 7.09072 13.1667 7.02778 13.1678C6.96484 13.1689 6.90232 13.1574 6.84396 13.1338C6.78559 13.1102 6.73257 13.0751 6.68806 13.0306C6.64354 12.9861 6.60845 12.9331 6.58488 12.8747C6.5613 12.8163 6.54972 12.7538 6.55083 12.6909C6.55194 12.6279 6.56572 12.5659 6.59134 12.5084C6.61696 12.4509 6.6539 12.3991 6.69995 12.3562L11.0562 7.99995L6.69995 3.6437C6.61217 3.55581 6.56287 3.43667 6.56287 3.31245C6.56287 3.18823 6.61217 3.06909 6.69995 2.9812Z" fill="white"/>
</svg>
