<svg width="36" height="36" viewBox="0 0 36 36" fill="none" xmlns="http://www.w3.org/2000/svg">
<path d="M31.5 16.875V29.25C31.5 29.8467 31.2629 30.419 30.841 30.841C30.419 31.2629 29.8467 31.5 29.25 31.5H7.875C7.27826 31.5 6.70597 31.2629 6.28401 30.841C5.86205 30.419 5.625 29.8467 5.625 29.25V16.875M18 7.3125C18 6.53374 17.7691 5.77246 17.3364 5.12494C16.9038 4.47743 16.2888 3.97275 15.5693 3.67473C14.8498 3.37671 14.0581 3.29873 13.2943 3.45066C12.5305 3.60259 11.8289 3.9776 11.2783 4.52827C10.7276 5.07894 10.3526 5.78053 10.2007 6.54433C10.0487 7.30813 10.1267 8.09983 10.4247 8.81932C10.7227 9.5388 11.2274 10.1538 11.8749 10.5864C12.5225 11.0191 13.2837 11.25 14.0625 11.25H18M18 7.3125V11.25M18 7.3125C18 6.53374 18.2309 5.77246 18.6636 5.12494C19.0962 4.47743 19.7112 3.97275 20.4307 3.67473C21.1502 3.37671 21.9419 3.29873 22.7057 3.45066C23.4695 3.60259 24.1711 3.9776 24.7217 4.52827C25.2724 5.07894 25.6474 5.78053 25.7993 6.54433C25.9513 7.30813 25.8733 8.09983 25.5753 8.81932C25.2773 9.5388 24.7726 10.1538 24.1251 10.5864C23.4775 11.0191 22.7163 11.25 21.9375 11.25H18M18 11.25V31.5M5.0625 16.875H32.0625C32.994 16.875 33.75 16.119 33.75 15.1875V12.9375C33.75 12.006 32.994 11.25 32.0625 11.25H5.0625C4.131 11.25 3.375 12.006 3.375 12.9375V15.1875C3.375 16.119 4.131 16.875 5.0625 16.875Z" stroke="black" stroke-width="1.5" stroke-linecap="round" stroke-linejoin="round"/>
</svg>
