<svg width="29" height="30" viewBox="0 0 29 30" fill="none" xmlns="http://www.w3.org/2000/svg">
<g clip-path="url(#clip0_1_919)">
<path d="M27.864 25.2299L16.762 3.14494C16.3144 2.12974 15.3095 1.47461 14.2 1.47461C13.0905 1.47461 12.0857 2.12974 11.638 3.14494L0.536023 25.2229C0.0464773 26.1357 0.0799134 27.24 0.623782 28.1215C1.16765 29.0029 2.13968 29.5281 3.17502 29.4999H25.225C26.2583 29.5267 27.2279 29.0024 27.7714 28.1232C28.3148 27.2439 28.35 26.1422 27.864 25.2299Z" fill="#D82027"/>
<path d="M14.2 26.9868C15.7851 26.9868 17.07 25.7019 17.07 24.1168C17.07 22.5318 15.7851 21.2468 14.2 21.2468C12.615 21.2468 11.33 22.5318 11.33 24.1168C11.33 25.7019 12.615 26.9868 14.2 26.9868Z" fill="white"/>
<path d="M14.2 7.604C13.0093 7.604 12.044 8.56928 12.044 9.76V17.656C12.1091 18.7972 13.0535 19.6892 14.1965 19.6892C15.3396 19.6892 16.2839 18.7972 16.349 17.656V9.76C16.349 8.57201 15.388 7.60786 14.2 7.604Z" fill="white"/>
</g>
<defs>
<clipPath id="clip0_1_919">
<rect width="28" height="28.7" fill="white" transform="translate(0.200012 0.800049)"/>
</clipPath>
</defs>
</svg>
