<svg width="37" height="30" viewBox="0 0 37 30" fill="none" xmlns="http://www.w3.org/2000/svg">
<path d="M36.95 3.54909C35.5677 4.1613 34.1017 4.5634 32.6005 4.74204C34.1841 3.79625 35.3697 2.30671 35.9362 0.551215C34.449 1.43327 32.8221 2.05485 31.1257 2.38914C29.9837 1.17464 28.4733 0.370423 26.8282 0.10094C25.1832 -0.168543 23.4951 0.111738 22.0254 0.898405C20.5557 1.68507 19.3862 2.93426 18.6979 4.45265C18.0097 5.97104 17.841 7.67396 18.2181 9.29786C15.2071 9.14718 12.2614 8.36484 9.57243 7.00164C6.88342 5.63844 4.51118 3.72487 2.60976 1.38518C1.64036 3.05257 1.34312 5.02685 1.77859 6.90577C2.21406 8.7847 3.34948 10.4269 4.95351 11.4978C3.75054 11.4608 2.57389 11.1365 1.52188 10.5518V10.6468C1.52327 12.3949 2.12902 14.0887 3.23646 15.4411C4.34389 16.7936 5.88488 17.7214 7.59822 18.0675C6.48238 18.3702 5.3123 18.415 4.17659 18.1985C4.66107 19.7031 5.60334 21.0187 6.87181 21.9617C8.14027 22.9047 9.67158 23.4279 11.2518 23.4583C8.57095 25.5622 5.26062 26.7036 1.85284 26.6992C1.24711 26.7005 0.641808 26.6664 0.0400391 26.5972C3.50275 28.8212 7.53242 30.0015 11.6478 29.997C25.5763 29.997 33.1945 18.4565 33.1945 8.44889C33.1945 8.12091 33.1868 7.79392 33.1714 7.46793C34.6538 6.39653 35.9333 5.0695 36.95 3.54909Z" fill="white"/>
</svg>
