<svg width="30" height="30" viewBox="0 0 30 30" fill="none" xmlns="http://www.w3.org/2000/svg">
<path fill-rule="evenodd" clip-rule="evenodd" d="M26.539 12.6876H23.927C24.2858 14.0532 24.3265 15.4829 24.046 16.8668C23.7655 18.2506 23.1713 19.5516 22.309 20.6697C21.4467 21.7879 20.3394 22.6932 19.0723 23.3162C17.8051 23.9392 16.412 24.2631 15 24.2631C13.588 24.2631 12.1949 23.9392 10.9277 23.3162C9.66061 22.6932 8.5533 21.7879 7.69102 20.6697C6.82874 19.5516 6.23448 18.2506 5.95398 16.8668C5.67347 15.4829 5.71419 14.0532 6.073 12.6876H3.461V25.3876C3.46153 25.6933 3.58335 25.9863 3.79971 26.2023C4.01606 26.4183 4.30929 26.5396 4.615 26.5396H25.384C25.6899 26.5398 25.9834 26.4186 26.1999 26.2026C26.4165 25.9866 26.5385 25.6934 26.539 25.3876V12.6876ZM26.539 4.61256C26.539 4.46098 26.5091 4.31088 26.451 4.17086C26.393 4.03084 26.3079 3.90365 26.2006 3.79656C26.0933 3.68946 25.966 3.60458 25.8258 3.54675C25.6857 3.48892 25.5356 3.4593 25.384 3.45956H21.923C21.6174 3.45956 21.3243 3.5809 21.1081 3.79691C20.8919 4.01292 20.7703 4.30594 20.77 4.61156V8.07356C20.77 8.37945 20.8914 8.67282 21.1076 8.88921C21.3238 9.1056 21.6171 9.22729 21.923 9.22756H25.384C25.5355 9.22769 25.6856 9.19797 25.8257 9.1401C25.9658 9.08223 26.093 8.99733 26.2003 8.89027C26.3075 8.7832 26.3927 8.65606 26.4508 8.5161C26.5089 8.37614 26.5389 8.2261 26.539 8.07456V4.61256ZM15 9.22756C13.8588 9.22756 12.7432 9.56596 11.7944 10.2C10.8455 10.834 10.1059 11.7351 9.66922 12.7895C9.2325 13.8438 9.11823 15.004 9.34087 16.1232C9.56351 17.2425 10.113 18.2706 10.92 19.0776C11.7269 19.8845 12.7551 20.4341 13.8743 20.6567C14.9936 20.8793 16.1538 20.7651 17.2081 20.3283C18.2624 19.8916 19.1636 19.1521 19.7976 18.2032C20.4316 17.2543 20.77 16.1388 20.77 14.9976C20.7701 14.2398 20.621 13.4894 20.3311 12.7893C20.0411 12.0892 19.6161 11.4531 19.0803 10.9173C18.5445 10.3814 17.9083 9.95643 17.2082 9.66651C16.5081 9.37658 15.7578 9.22743 15 9.22756ZM26.539 29.9976H3.461C3.00636 29.9974 2.55621 29.9077 2.13623 29.7336C1.71625 29.5595 1.33467 29.3044 1.01329 28.9829C0.691906 28.6613 0.437007 28.2796 0.263146 27.8595C0.089286 27.4394 -0.000131196 26.9892 1.4448e-07 26.5346V3.45856C1.4448e-07 2.54064 0.36464 1.66033 1.0137 1.01126C1.66277 0.362199 2.54309 -0.00244141 3.461 -0.00244141L26.539 -0.00244141C27.4569 -0.00244141 28.3372 0.362199 28.9863 1.01126C29.6354 1.66033 30 2.54064 30 3.45856V26.5346C30.0001 26.9892 29.9107 27.4394 29.7369 27.8595C29.563 28.2796 29.3081 28.6613 28.9867 28.9829C28.6653 29.3044 28.2838 29.5595 27.8638 29.7336C27.4438 29.9077 26.9936 29.9974 26.539 29.9976Z" fill="white"/>
</svg>
