<svg width="42" height="42" viewBox="0 0 42 42" fill="none" xmlns="http://www.w3.org/2000/svg">
<path d="M33.9548 0.5H7.84525C3.73337 0.5 0.400024 3.83334 0.400024 7.94523V34.0548C0.400024 38.1667 3.73337 41.5 7.84525 41.5H33.9548C38.0667 41.5 41.4 38.1667 41.4 34.0548V7.94523C41.4 3.83334 38.0667 0.5 33.9548 0.5Z" fill="#DC1431"/>
<path fill-rule="evenodd" clip-rule="evenodd" d="M28.5882 15.6431C25.8651 14.4769 23.0626 13.5053 20.2019 12.7358C19.2701 12.9222 18.3848 13.1272 17.4903 13.3602C20.3169 14.1723 23.077 15.2003 25.7462 16.4352C26.678 16.1494 27.6098 15.8854 28.5417 15.6431" fill="white"/>
<path fill-rule="evenodd" clip-rule="evenodd" d="M35.5102 17.9346C28.7908 20.1592 22.4288 23.3449 16.6223 27.3925C18.0573 28.2622 19.4581 29.194 20.8248 30.188C26.2947 25.9097 32.3194 22.3927 38.7343 19.733C37.672 19.1118 36.5973 18.5123 35.5102 17.9346Z" fill="white"/>
<path fill-rule="evenodd" clip-rule="evenodd" d="M17.2574 17.041C18.301 17.4417 19.326 17.8797 20.351 18.3456C17.1341 19.6336 14.0191 21.1631 11.0328 22.9208C10.0265 22.399 9.00146 21.9051 7.95782 21.4485C10.9418 19.734 14.0577 18.2602 17.276 17.041" fill="white"/>
<path fill-rule="evenodd" clip-rule="evenodd" d="M13.399 15.6987C10.053 16.7418 6.8167 18.1087 3.73608 19.7801C4.6679 20.1249 5.68358 20.4976 6.64336 20.889C9.63039 19.1626 12.7718 17.7182 16.0268 16.5746C15.1633 16.2578 14.2905 15.9659 13.4084 15.6987" fill="white"/>
<path fill-rule="evenodd" clip-rule="evenodd" d="M24.2732 16.9101C21.6214 15.6493 18.8769 14.5932 16.0639 13.7512C15.0762 14.0308 14.0885 14.3383 13.11 14.683C16.0069 15.5244 18.8329 16.5931 21.5616 17.8792C22.4935 17.5437 23.36 17.2176 24.2732 16.9474" fill="white"/>
<path fill-rule="evenodd" clip-rule="evenodd" d="M11.1898 24.447C12.5316 25.0682 13.8517 25.764 15.15 26.5343C21.0678 22.5076 27.5748 19.4238 34.4386 17.3932C33.2583 16.8092 32.0594 16.2626 30.8418 15.7532C23.8649 17.5716 17.2283 20.5075 11.1898 24.447Z" fill="white"/>
</svg>
