<svg width="30" height="30" viewBox="0 0 30 30" fill="none" xmlns="http://www.w3.org/2000/svg">
<path d="M28.345 -0.00244141H1.656C1.2168 -0.00244141 0.795592 0.172029 0.485031 0.48259C0.174471 0.79315 3.02325e-07 1.21436 3.02325e-07 1.65356V28.3416C-0.000131161 28.5591 0.0426128 28.7745 0.125788 28.9754C0.208963 29.1764 0.330938 29.359 0.484738 29.5128C0.638538 29.6666 0.821147 29.7886 1.02212 29.8718C1.2231 29.9549 1.43849 29.9977 1.656 29.9976H28.345C28.5624 29.9976 28.7777 29.9547 28.9786 29.8715C29.1794 29.7882 29.3619 29.6663 29.5156 29.5125C29.6693 29.3587 29.7912 29.1761 29.8743 28.9752C29.9574 28.7743 30.0001 28.559 30 28.3416V1.65356C30 1.21453 29.8257 0.793475 29.5153 0.482943C29.205 0.172412 28.784 -0.00217629 28.345 -0.00244141Z" fill="white"/>
<path d="M24.6 18.3805L25.184 13.8535H20.7V10.9625C20.7 9.65151 21.064 8.75751 22.944 8.75751H25.344V4.70651C24.1841 4.58394 23.0184 4.52452 21.852 4.52851C18.395 4.52851 16.028 6.63751 16.028 10.5125V13.8525H12.115V18.3795H16.023V29.9975H20.7V18.3805H24.6Z" fill="#012169"/>
</svg>
