<svg width="30" height="30" viewBox="0 0 30 30" fill="none" xmlns="http://www.w3.org/2000/svg">
<path d="M30 14.9976C30 17.9643 29.1203 20.8644 27.4721 23.3311C25.8238 25.7978 23.4812 27.7204 20.7403 28.8558C17.9994 29.9911 14.9834 30.2881 12.0737 29.7093C9.16394 29.1306 6.49119 27.7019 4.3934 25.6042C2.29562 23.5064 0.867006 20.8336 0.288228 17.9239C-0.290551 15.0142 0.00649929 11.9982 1.14181 9.25731C2.27713 6.51642 4.19972 4.17374 6.66645 2.52551C9.13319 0.877293 12.0333 -0.00244141 15 -0.00244141C18.9783 -0.00244141 22.7936 1.57791 25.6066 4.39096C28.4197 7.204 30 11.0193 30 14.9976Z" fill="white"/>
<path d="M14.982 1.66162C11.874 1.66116 8.86335 2.74638 6.47039 4.72978C4.07744 6.71317 2.45246 9.47014 1.87623 12.5243C1.3 15.5785 1.80871 18.738 3.31447 21.457C4.82023 24.176 7.22845 26.2836 10.123 27.4156C9.94608 26.1452 9.96125 24.8555 10.168 23.5896C10.41 22.5496 11.732 16.9606 11.732 16.9606C11.4599 16.3368 11.3235 15.6622 11.332 14.9816C11.332 13.1256 12.408 11.7426 13.746 11.7426C13.9852 11.739 14.2225 11.7867 14.4417 11.8824C14.661 11.9782 14.8572 12.1198 15.0171 12.2977C15.1771 12.4757 15.297 12.6858 15.3689 12.914C15.4409 13.1422 15.463 13.3831 15.434 13.6206C15.434 14.7646 14.705 16.4756 14.328 18.0606C14.2536 18.3543 14.249 18.6613 14.3147 18.957C14.3804 19.2528 14.5145 19.529 14.7062 19.7635C14.898 19.9981 15.142 20.1844 15.4188 20.3075C15.6956 20.4307 15.9974 20.4872 16.3 20.4726C18.671 20.4726 20.493 17.9726 20.493 14.3656C20.5166 13.6344 20.3876 12.9062 20.1141 12.2276C19.8406 11.549 19.4287 10.9348 18.9046 10.4243C18.3805 9.91374 17.7558 9.51804 17.0703 9.26241C16.3847 9.00679 15.6534 8.89686 14.923 8.93962C14.1429 8.90566 13.364 9.03034 12.6335 9.30611C11.903 9.58188 11.236 10.003 10.6729 10.544C10.1099 11.085 9.66242 11.7346 9.35768 12.4536C9.05295 13.1725 8.89725 13.9458 8.90002 14.7266C8.90391 15.8211 9.25394 16.8862 9.90002 17.7696C9.9471 17.8201 9.98031 17.8819 9.99643 17.949C10.0126 18.0161 10.011 18.0863 9.99202 18.1526C9.89202 18.5746 9.66602 19.4796 9.62302 19.6656C9.56502 19.9096 9.43002 19.9656 9.17602 19.8446C7.51002 19.0696 6.46902 16.6336 6.46902 14.6786C6.46902 10.4716 9.52602 6.60862 15.282 6.60862C19.909 6.60862 23.503 9.90862 23.503 14.3086C23.503 18.9086 20.603 22.6036 16.583 22.6036C15.986 22.6247 15.3933 22.4956 14.8592 22.2281C14.3251 21.9606 13.8667 21.5633 13.526 21.0726C13.526 21.0726 12.858 23.6196 12.696 24.2426C12.2987 25.4768 11.7413 26.6535 11.038 27.7426C12.8718 28.3085 14.806 28.472 16.7087 28.2219C18.6114 27.9718 20.4378 27.314 22.063 26.2935C23.6882 25.273 25.0741 23.9138 26.1259 22.3086C27.1778 20.7035 27.8708 18.8903 28.1578 16.9928C28.4447 15.0953 28.3188 13.1582 27.7886 11.3138C27.2584 9.46947 26.3364 7.76124 25.0856 6.3058C23.8347 4.85037 22.2846 3.68201 20.5409 2.88051C18.7972 2.07901 16.9011 1.66325 14.982 1.66162Z" fill="#012169"/>
</svg>
