<svg width="30" height="30" viewBox="0 0 30 30" fill="none" xmlns="http://www.w3.org/2000/svg">
<path fill-rule="evenodd" clip-rule="evenodd" d="M4.29869 4.43964C11.4231 3.99831 18.5679 3.99831 25.6923 4.43964C26.7227 4.50825 27.6933 4.94843 28.4238 5.67846C29.1542 6.40849 29.5949 7.37876 29.6641 8.40911C30.1034 12.5686 30.1034 16.7628 29.6641 20.9223C29.5944 21.9527 29.1535 22.9228 28.4232 23.6531C27.6929 24.3833 26.7227 24.8241 25.6923 24.8938C18.568 25.3384 11.4229 25.3384 4.29869 24.8938C3.26672 24.8288 2.29399 24.3893 1.5632 23.6578C0.832409 22.9264 0.393844 21.9533 0.329879 20.9213C-0.109471 16.7618 -0.109471 12.5676 0.329879 8.40811C0.397712 7.3779 0.837631 6.40744 1.56774 5.67739C2.29785 4.94735 3.26839 4.50746 4.29869 4.43964Z" fill="white"/>
<path fill-rule="evenodd" clip-rule="evenodd" d="M11.9084 10.3923L19.9014 14.5817L11.9084 18.7171V10.3923Z" fill="#012169"/>
</svg>
