<svg width="26" height="26" viewBox="0 0 26 26" fill="none" xmlns="http://www.w3.org/2000/svg">
<path d="M0.659912 1.06165V25.5383H25.6599V1.06165H0.659912ZM21.4007 2.93498C21.6872 2.93514 21.9672 3.02025 22.2053 3.17953C22.4433 3.33881 22.6288 3.56512 22.7383 3.82983C22.8478 4.09454 22.8763 4.38577 22.8203 4.66668C22.7642 4.9476 22.6261 5.20559 22.4234 5.40803C22.2208 5.61046 21.9626 5.74826 21.6817 5.80398C21.4007 5.8597 21.1095 5.83085 20.8449 5.72108C20.5803 5.61131 20.3542 5.42554 20.1952 5.18727C20.0362 4.949 19.9514 4.66893 19.9516 4.38248C19.9515 4.19222 19.9889 4.00381 20.0617 3.82803C20.1345 3.65225 20.2413 3.49256 20.3759 3.35811C20.5105 3.22365 20.6703 3.11707 20.8462 3.04446C21.022 2.97185 21.2105 2.93465 21.4007 2.93498ZM4.72825 2.93498C5.01463 2.93564 5.29438 3.02118 5.53216 3.1808C5.76993 3.34042 5.95505 3.56695 6.06411 3.83175C6.17317 4.09655 6.20128 4.38774 6.14488 4.66852C6.08849 4.94929 5.95012 5.20705 5.74727 5.4092C5.54442 5.61135 5.28619 5.74883 5.00522 5.80426C4.72425 5.85968 4.43316 5.83057 4.16874 5.7206C3.90431 5.61062 3.67842 5.42473 3.51963 5.1864C3.36083 4.94808 3.27625 4.66803 3.27658 4.38165C3.27669 4.19128 3.31435 4.0028 3.3874 3.827C3.46045 3.65121 3.56747 3.49155 3.70231 3.35717C3.83715 3.22279 3.99718 3.11633 4.17322 3.04389C4.34927 2.97144 4.53788 2.93443 4.72825 2.93498ZM6.61658 23.2733H3.27658V19.9341H6.61658V23.2733ZM6.61658 18.1658H3.27658V14.8258H6.61658V18.1658ZM6.61658 13.0608H3.27658V9.72081H6.61658V13.0608ZM12.0424 23.2733H8.70491V19.9341H12.0432L12.0424 23.2733ZM12.0424 18.1658H8.70491V14.8258H12.0432L12.0424 18.1658ZM12.0424 13.0608H8.70491V9.72081H12.0432V13.0616L12.0424 13.0608ZM17.4699 18.1658H14.1307V14.8258H17.4699V18.1658ZM17.4699 13.0608H14.1307V9.72081H17.4699V13.0608ZM22.8957 18.1658H19.5541V14.8258H22.8957V18.1658ZM22.8957 13.0608H19.5541V9.72081H22.8957V13.0608Z" fill="#0073CF"/>
</svg>
