<svg width="31" height="30" viewBox="0 0 31 30" fill="none" xmlns="http://www.w3.org/2000/svg">
<path d="M28.281 -0.00178375H2.715C2.13486 -0.00899014 1.57562 0.214512 1.16024 0.619572C0.74487 1.02463 0.50738 1.57808 0.5 2.15822L0.5 27.8342C0.50712 28.4148 0.744397 28.9688 1.15971 29.3746C1.57503 29.7803 2.13441 30.0046 2.715 29.9982H28.281C28.8616 30.0033 29.4206 29.7787 29.8363 29.3733C30.2519 28.968 30.4905 28.4147 30.5 27.8342V2.15822C30.4916 1.57772 30.2532 1.02428 29.8372 0.619328C29.4212 0.21438 28.8615 -0.00899599 28.281 -0.00178375Z" fill="white"/>
<path d="M4.94799 11.244H9.39999V25.561H4.94799V11.244ZM7.17399 4.12695C7.68427 4.12695 8.18309 4.27827 8.60737 4.56176C9.03164 4.84526 9.36233 5.2482 9.5576 5.71963C9.75288 6.19106 9.80397 6.70982 9.70442 7.21029C9.60487 7.71076 9.35915 8.17047 8.99833 8.53129C8.63751 8.89211 8.1778 9.13783 7.67733 9.23738C7.17686 9.33693 6.6581 9.28584 6.18667 9.09056C5.71524 8.89529 5.3123 8.5646 5.0288 8.14032C4.74531 7.71605 4.59399 7.21723 4.59399 6.70695C4.59399 6.02269 4.86582 5.36646 5.34966 4.88262C5.8335 4.39877 6.48974 4.12695 7.17399 4.12695Z" fill="#012169"/>
<path d="M12.1886 11.2437H16.4566V13.1977H16.5166C16.9442 12.4681 17.5614 11.868 18.3026 11.4611C19.0439 11.0542 19.8816 10.8557 20.7266 10.8867C25.2326 10.8867 26.0646 13.8517 26.0646 17.7067V25.5587H21.6176V18.5977C21.6176 16.9397 21.5866 14.8027 19.3036 14.8027C16.9896 14.8027 16.6346 16.6117 16.6346 18.4787V25.5607H12.1886V11.2437Z" fill="#012169"/>
</svg>
