<svg width="29" height="29" viewBox="0 0 29 29" fill="none" xmlns="http://www.w3.org/2000/svg">
<path fill-rule="evenodd" clip-rule="evenodd" d="M2.75959 17.2523C2.75141 15.9208 3.00797 14.601 3.51437 13.3695C4.02076 12.138 4.76688 11.0195 5.70936 10.0789C6.65184 9.13834 7.77188 8.39448 9.00437 7.89058C10.2369 7.38667 11.5572 7.13278 12.8887 7.14365C14.9571 7.11981 16.9942 7.6497 18.7888 8.67837C20.8351 6.12051 24.7435 6.76168 24.7435 6.76168L22.5403 11.4545C23.8302 12.6973 25.3317 13.6998 26.974 14.4148V19.2577C24.5662 21.5427 22.6699 23.8482 20.4463 24.9395L20.7669 28.1658H19.2117L17.6497 25.8876C16.3055 26.1797 14.9326 26.3193 13.5572 26.3037C12.373 26.3052 11.1947 26.1375 10.058 25.8058L8.44826 28.1658H6.89308L7.26824 24.6189C4.51257 22.9137 2.75959 20.1785 2.75959 17.2523Z" fill="#333333"/>
<path fill-rule="evenodd" clip-rule="evenodd" d="M12.8751 5.3088C14.096 5.30381 15.3105 5.48553 16.4765 5.84765C16.7257 5.32566 16.8562 4.75494 16.8585 4.17652C16.7854 3.17032 16.3339 2.22913 15.5949 1.5424C14.8559 0.855664 13.8841 0.474357 12.8753 0.475221C11.8664 0.476086 10.8954 0.859058 10.1575 1.54706C9.41964 2.23506 8.96977 3.17701 8.89844 4.18334C8.89947 4.79201 9.04191 5.39212 9.31452 5.93633C10.4605 5.52208 11.6702 5.312 12.8887 5.31562" fill="#333333"/>
</svg>
