<svg width="29" height="29" viewBox="0 0 29 29" fill="none" xmlns="http://www.w3.org/2000/svg">
<path fill-rule="evenodd" clip-rule="evenodd" d="M28.806 15.4595L26.287 7.64905L18.0127 10.346H22.2308C22.68 10.346 23.1108 10.5245 23.4284 10.8421C23.746 11.1597 23.9245 11.5905 23.9245 12.0397V18.1996L28.0886 16.8565C28.3689 16.7662 28.6019 16.5684 28.7364 16.3065C28.8709 16.0445 28.8959 15.7399 28.806 15.4595Z" fill="#333333"/>
<path fill-rule="evenodd" clip-rule="evenodd" d="M25.4834 5.16779L25.1381 4.089C25.0446 3.81169 24.8453 3.5825 24.5838 3.45121C24.3222 3.31991 24.0194 3.29713 23.7411 3.38779L4.46312 9.60702C4.29256 9.66274 4.13812 9.75913 4.01314 9.88788C3.88815 10.0166 3.79637 10.1738 3.74573 10.346H9.49028L25.4834 5.16779Z" fill="#333333"/>
<path fill-rule="evenodd" clip-rule="evenodd" d="M22.2308 10.9124H1.97114C1.67644 10.9124 1.39382 11.0294 1.18543 11.2378C0.977053 11.4462 0.859985 11.7288 0.859985 12.0235L0.859985 23.9549C0.859985 24.2496 0.977053 24.5323 1.18543 24.7406C1.39382 24.949 1.67644 25.0661 1.97114 25.0661H22.2308C22.5255 25.0661 22.8081 24.949 23.0165 24.7406C23.2249 24.5323 23.342 24.2496 23.342 23.9549V12.0235C23.342 11.7288 23.2249 11.4462 23.0165 11.2378C22.8081 11.0294 22.5255 10.9124 22.2308 10.9124ZM7.79661 22.2127H11.3674V21.0098H7.79661V22.2127ZM2.72629 17.8975C2.72629 17.7545 2.78312 17.6173 2.88428 17.5161C2.98543 17.415 3.12263 17.3581 3.26569 17.3581H5.80084C5.93436 17.3715 6.05808 17.4342 6.14784 17.534C6.23761 17.6337 6.28697 17.7633 6.2863 17.8975V19.5157C6.2863 19.6588 6.22947 19.796 6.12831 19.8971C6.02716 19.9983 5.88996 20.0551 5.74691 20.0551H3.27108C3.12802 20.0551 2.99083 19.9983 2.88967 19.8971C2.78852 19.796 2.73169 19.6588 2.73169 19.5157L2.72629 17.8975ZM2.75326 22.2127H6.32406V21.0098H2.75326V22.2127ZM17.8563 22.2127H21.4271V21.0098H17.8779L17.8563 22.2127ZM16.3838 20.9936V22.2127H12.8346V21.0098H16.4054L16.3838 20.9936Z" fill="#333333"/>
</svg>
