<svg width="29" height="29" viewBox="0 0 29 29" fill="none" xmlns="http://www.w3.org/2000/svg">
<path fill-rule="evenodd" clip-rule="evenodd" d="M28.1728 18.5363C27.4952 18.7868 25.3255 18.6673 25.3255 18.6673L23.6514 18.7014C23.4647 19.4338 23.0405 20.0836 22.4451 20.5492C21.8498 21.0147 21.1168 21.2697 20.3611 21.2743C19.6053 21.2788 18.8694 21.0327 18.2684 20.5743C17.6675 20.116 17.2355 19.4714 17.04 18.7413H10.0243C9.82764 19.4651 9.39823 20.1041 8.80236 20.5596C8.20648 21.0152 7.47727 21.262 6.72721 21.262C5.97715 21.262 5.24793 21.0152 4.65206 20.5596C4.05619 20.1041 3.62678 19.4651 3.43008 18.7413H0.258223C0.0987766 18.2117 0.189889 12.7677 0.787815 11.9762C1.47685 11.0594 4.89357 7.36362 4.89357 7.36362C5.31497 7.0732 12.9855 6.89667 14.8761 7.30098C15.7872 7.49459 20.5706 11.253 20.5706 11.253C20.5706 11.253 26.4132 12.9613 27.0965 13.6276C28.4063 14.9373 28.15 18.5363 28.15 18.5363M6.72721 15.7346C6.29352 15.7346 5.86963 15.8636 5.50944 16.1052C5.14924 16.3467 4.86902 16.6899 4.70438 17.0912C4.53974 17.4924 4.49814 17.9335 4.58484 18.3585C4.67155 18.7834 4.88266 19.173 5.19133 19.4776C5.5 19.7823 5.89229 19.9882 6.31833 20.0694C6.74436 20.1505 7.1849 20.1031 7.58394 19.9332C7.98298 19.7634 8.32249 19.4787 8.5593 19.1153C8.79612 18.752 8.91956 18.3265 8.91391 17.8928C8.91391 17.3129 8.68352 16.7567 8.27344 16.3466C7.86335 15.9365 7.30716 15.7061 6.72721 15.7061M20.3599 15.7061C19.9274 15.7061 19.5046 15.8344 19.145 16.0746C18.7854 16.3149 18.5052 16.6564 18.3397 17.056C18.1742 17.4556 18.1309 17.8952 18.2152 18.3194C18.2996 18.7436 18.5079 19.1332 18.8137 19.439C19.1195 19.7449 19.5091 19.9531 19.9333 20.0375C20.3575 20.1219 20.7972 20.0786 21.1967 19.9131C21.5963 19.7475 21.9378 19.4673 22.1781 19.1077C22.4184 18.7481 22.5466 18.3253 22.5466 17.8928C22.5451 17.3138 22.3141 16.7591 21.9041 16.3503C21.4942 15.9414 20.9389 15.7118 20.3599 15.7118" fill="#333333"/>
</svg>
