<svg width="29" height="29" viewBox="0 0 29 29" fill="none" xmlns="http://www.w3.org/2000/svg">
<path d="M22.87 4.79197V3.72797C21.134 3.11197 17.998 2.71997 14.414 2.71997C10.83 2.71997 7.69396 3.11197 5.95796 3.72797V4.79197L2.70996 9.94397C2.70996 11.736 4.16596 13.192 5.90196 13.192C7.07796 13.192 8.14196 12.52 8.75796 11.512C9.59796 13.08 11.558 13.64 13.126 12.8C13.686 12.52 14.134 12.072 14.414 11.512C15.254 13.08 17.214 13.64 18.782 12.8C19.342 12.52 19.79 12.072 20.07 11.512C20.91 13.08 22.87 13.64 24.438 12.8C25.446 12.24 26.118 11.176 26.118 9.94397L22.87 4.79197ZM13.014 19.52H12.566V20.584H13.07C13.35 20.584 13.574 20.416 13.574 20.136V20.024C13.63 19.744 13.406 19.52 13.182 19.52H13.014Z" fill="#333333"/>
<path d="M23.822 22.32V14.424C23.486 14.48 23.206 14.48 22.87 14.48C22.59 14.48 22.254 14.48 21.974 14.424V16.8879H6.68599V14.424L5.90199 14.48C5.56599 14.48 5.28599 14.48 5.00599 14.424V22.32L3.43799 23.4399V25.68H25.39V23.4399L23.822 22.32ZM9.65399 22.432C8.53399 22.432 8.02999 21.7599 8.02999 20.6959C8.02999 19.6319 8.53399 18.96 9.65399 18.96C10.774 18.96 11.222 19.7439 11.222 20.6959C11.166 21.6479 10.662 22.432 9.65399 22.432ZM13.126 21.088H12.566V22.3759H11.838V19.016H13.126C13.91 19.016 14.246 19.408 14.246 20.08C14.246 20.64 13.854 21.088 13.294 21.144C13.238 21.088 13.182 21.088 13.126 21.088ZM17.102 22.3759H14.75V19.016H17.102V19.52H15.534V20.36H16.878V20.808H15.534V21.8159H17.214L17.102 22.3759ZM20.574 22.3759H19.902L18.782 20.584L18.446 20.024V22.3759H17.774V19.016H18.502L19.51 20.64L19.958 21.3679V19.072H20.63L20.574 22.3759Z" fill="#333333"/>
<path d="M9.65396 19.464C8.98196 19.464 8.81396 20.08 8.81396 20.752C8.81396 21.424 9.03796 21.984 9.65396 21.984C10.27 21.984 10.438 21.48 10.438 20.752C10.438 20.024 10.27 19.464 9.65396 19.464Z" fill="#333333"/>
</svg>
