<svg width="29" height="29" viewBox="0 0 29 29" fill="none" xmlns="http://www.w3.org/2000/svg">
<path d="M26.767 27.2245C26.767 26.9032 27.0309 26.6393 27.3752 26.6393C27.7194 26.6393 27.9834 26.9032 27.9834 27.2245C27.9834 27.5458 27.7194 27.8327 27.3752 27.8327C27.0309 27.8098 26.767 27.5458 26.767 27.2245ZM26.8702 27.2245C26.8702 27.4885 27.0883 27.7065 27.3752 27.7065C27.6391 27.7065 27.8571 27.4999 27.8571 27.2245C27.8571 26.9606 27.6391 26.754 27.3752 26.754C27.0998 26.754 26.8702 26.9606 26.8702 27.2245Z" fill="#243B7A"/>
<path d="M27.685 27.5687H27.5588L27.3522 27.2589H27.249V27.5687H27.1572V26.9032H27.467C27.5244 26.9032 27.5932 26.9032 27.6276 26.9491C27.685 26.972 27.708 27.0294 27.708 27.0868C27.708 27.213 27.6047 27.2704 27.4899 27.2704L27.685 27.5687ZM27.3637 27.1556C27.467 27.1556 27.5817 27.1786 27.5817 27.0523C27.5817 26.972 27.5014 26.9491 27.4211 26.9491H27.2604V27.1556H27.3637ZM8.3719 10.8835C7.78666 10.7917 7.20141 10.7802 6.55879 10.8835L6.38666 10.5278C6.94895 10.0802 8.06207 10.1032 8.56699 10.5278L8.3719 10.8835ZM27.6965 21.1425C25.9867 26.1114 26.2162 27.1097 26.2506 27.8556H21.3735C21.5686 27.4081 22.4522 25.813 22.6588 24.2983C22.4408 24.4933 21.4194 25.2737 19.9965 24.7114C19.4571 26.0655 18.5506 27.5687 18.3899 27.8442H14.0752C14.5571 27.0294 15.7162 25.595 16.2785 23.4491L15.0276 23.5523L14.9473 22.5884L14.1899 22.6458C14.0981 23.931 13.9834 25.4114 13.9834 25.4114C13.2031 25.5146 12.1703 25.6409 11.2752 25.6409C10.908 25.6409 9.69158 25.6982 8.47518 24.6196C7.74076 24.0114 6.86863 23.2425 5.99649 22.4622C5.92764 24.3097 5.51453 27.3851 5.45715 27.8442H1.49813C1.8883 25.6294 2.39322 25.1474 1.39485 20.7179C1.2342 20.0064 1.26862 19.0884 1.67026 18.3769C0.499772 16.8737 0.144035 15.1294 0.626002 13.2589C1.07354 11.5835 1.87682 9.03596 2.49649 7.23432L1.30305 7.09661C1.2801 6.66055 1.60141 6.0294 2.026 5.67366C1.42928 4.93924 1.1883 4.18186 1.1883 3.48186C1.26862 0.349072 4.45879 0.383497 5.54895 0.417923C4.80305 1.58842 4.48174 2.6671 4.83748 2.89661C5.19321 3.12612 6.00797 2.54087 7.35059 2.54087C8.69321 2.54087 9.51944 3.12612 9.86371 2.89661C10.2194 2.6671 9.89813 1.58842 9.15223 0.417923C10.2424 0.383497 13.4326 0.337597 13.5129 3.48186C13.5129 4.18186 13.2834 4.96219 12.744 5.61629C13.0883 6.0294 13.3981 6.61465 13.467 7.08514L12.067 7.10809C12.3424 7.63596 12.5719 8.0376 12.6178 8.10645C13.6506 9.93104 14.6145 11.354 15.4637 12.2835C17.3112 14.2802 19.9391 15.1294 21.7867 15.2556C23.8637 15.3933 25.0916 14.9917 25.5391 14.0048C25.826 13.3851 25.8145 12.7884 25.5276 12.2146C24.908 11.0097 23.026 10.0573 20.2604 9.5294C17.7473 9.05891 15.9342 8.32448 15.3031 6.28186V6.27038C15.2916 6.21301 14.9473 4.99661 15.7162 3.95235C16.3588 3.0917 17.5408 2.65563 19.2162 2.65563H28.1899C28.144 2.73596 27.4785 4.09006 26.6293 4.98514C25.5965 6.05235 24.5981 6.38514 23.7604 6.38514C22.3834 6.38514 21.5801 5.58186 20.9375 4.93923C20.3752 4.37694 19.9965 4.0212 19.4342 3.99825C19.2965 3.99825 17.449 3.90645 16.8063 4.75563C16.4391 5.2376 16.5768 5.84579 16.5998 5.90317C16.9899 7.14252 18.0112 7.75071 20.5129 8.2212C22.7735 8.64579 25.6768 9.5753 26.7326 11.6064C27.2145 12.536 27.226 13.5802 26.7785 14.5671C26.285 15.6343 25.2867 16.2884 23.8178 16.5179C24.8506 17.631 25.1031 18.6294 25.826 19.6622C26.0899 20.0868 26.7326 20.7064 27.6965 21.1425ZM21.8785 4.03268C22.4637 4.61792 22.9227 5.08842 23.749 5.08842C24.5522 5.08842 25.2408 4.56055 25.7227 4.03268H21.8785ZM4.67682 21.2687C4.44731 21.0622 3.01289 19.7425 2.69158 19.4556C2.35879 20.3163 3.82764 23.3802 3.13912 26.513H4.28666C4.50469 24.7343 4.74567 22.2442 4.67682 21.2687ZM18.8719 23.9196C18.6998 23.7245 18.5391 23.5064 18.4129 23.2655L17.667 23.3343C17.3686 24.6655 16.8752 25.7442 16.4621 26.513H17.6096C17.9768 25.8819 18.4932 24.872 18.8719 23.9196ZM22.0047 23.0474C21.5342 22.8294 19.8703 22.531 19.4916 22.4163C19.6408 22.8524 20.0768 23.4146 20.7309 23.5523C21.3965 23.6786 21.8326 23.2884 22.0047 23.0474ZM26.0785 21.7622C25.0112 20.9704 24.667 20.5114 23.9555 19.1687C23.4735 18.2622 22.8194 16.8278 21.0178 16.5409C18.9867 16.254 16.3932 15.2671 14.4998 13.2245C14.3162 13.0179 14.1211 12.7999 13.9375 12.5704C13.9719 13.3851 13.7883 14.5097 13.2834 15.4278L12.2391 14.5097C12.3998 14.131 12.526 13.6835 12.5719 13.1671C12.6867 11.8589 12.308 10.3786 11.4358 8.76055C11.4014 8.6917 10.7358 7.48678 10.3686 6.75235L9.1178 8.55399L9.32436 9.25399L8.81945 10.1146C8.11945 9.94251 6.89158 9.94251 6.16863 10.1146L5.74403 9.25399H8.22272C8.22272 9.25399 8.3719 8.89825 8.26862 8.47366C7.91289 6.99333 8.01617 5.45563 9.93256 5.4212C10.0932 5.4212 10.3112 5.44415 10.5063 5.43268C11.6539 5.39825 12.1817 4.27366 12.1817 3.51628C12.1817 2.69005 11.5621 1.90973 10.9194 1.81792C11.1949 2.32284 11.149 3.14907 10.9998 3.48186C10.8506 3.80317 10.449 4.29661 9.76043 4.29661C9.30141 4.29661 8.49813 3.9294 7.35059 3.9294C6.20305 3.9294 5.3883 4.29661 4.94076 4.29661C4.26371 4.29661 3.85059 3.80317 3.70141 3.48186C3.54076 3.14907 3.50633 2.32284 3.78174 1.81792C3.15059 1.89825 2.50797 2.67858 2.51944 3.51628C2.53092 4.48022 3.36863 5.52448 4.44731 5.71956C4.34404 6.01792 4.30961 6.09825 4.01125 6.98186C3.40305 8.70317 2.43912 11.7442 1.9342 13.6032C1.44076 15.4278 1.9801 17.0573 3.54076 18.4343C3.87354 18.7327 6.44403 21.0851 7.27026 21.8196C7.27026 20.9474 7.55715 19.8573 8.38338 18.572L9.39322 19.4671C8.62436 20.7294 8.4178 21.8655 8.78502 22.795C9.08338 23.5409 9.76043 24.0917 10.6096 24.2753C11.0227 24.3671 11.9867 24.3097 12.744 24.2409C12.767 23.8851 12.8014 23.3802 12.8473 22.7835L10.6555 22.9671C11.1375 22.4392 11.7227 21.0851 11.7342 19.8343H13.0768C13.0768 20.3737 12.9965 20.913 12.8588 21.4409L16.1752 21.1769L16.2555 22.1294L18.0457 21.9687C18.0457 21.9458 18.0342 21.9114 18.0342 21.8884C17.1047 21.4179 16.0719 20.0294 16.5539 17.9638H17.9539C17.6326 18.7556 17.6785 20.1212 18.608 20.672C19.1588 21.0048 20.008 21.1769 20.7883 21.3376C22.1424 21.6245 23.6686 21.9458 23.9785 23.3687C24.1735 24.2983 23.7834 25.6179 23.4506 26.513H24.9309C25.0916 24.8146 25.9408 22.1753 26.0785 21.7622ZM8.76207 7.28022C9.51945 7.24579 9.88666 6.75235 9.86371 6.0753C9.10633 6.09825 8.72764 6.60317 8.76207 7.28022ZM5.04403 5.97202C5.00961 6.75235 5.44567 7.3376 6.3178 7.37202C6.34076 6.59169 5.91617 6.00645 5.04403 5.97202Z" fill="#243B7A"/>
</svg>
