<svg width="26" height="26" viewBox="0 0 26 26" fill="none" xmlns="http://www.w3.org/2000/svg">
<path d="M20.9202 0.799927H4.99973C2.49249 0.799927 0.459961 2.83245 0.459961 5.3397V21.2602C0.459961 23.7674 2.49249 25.7999 4.99973 25.7999H20.9202C23.4274 25.7999 25.46 23.7674 25.46 21.2602V5.3397C25.46 2.83245 23.4274 0.799927 20.9202 0.799927Z" fill="#DC1431"/>
<path fill-rule="evenodd" clip-rule="evenodd" d="M17.6474 10.0329C15.9869 9.32173 14.2781 8.72934 12.5338 8.26013C11.9656 8.37377 11.4258 8.49877 10.8804 8.64081C12.6039 9.13601 14.2869 9.76285 15.9145 10.5158C16.4826 10.3416 17.0508 10.1806 17.619 10.0329" fill="white"/>
<path fill-rule="evenodd" clip-rule="evenodd" d="M21.8691 11.4307C17.7719 12.7871 13.8926 14.7296 10.3521 17.1977C11.2271 17.728 12.0812 18.2962 12.9146 18.9023C16.2499 16.2935 19.9235 14.149 23.835 12.5273C23.1873 12.1485 22.532 11.7829 21.8691 11.4307Z" fill="white"/>
<path fill-rule="evenodd" clip-rule="evenodd" d="M10.7383 10.8851C11.3747 11.1295 11.9997 11.3965 12.6247 11.6806C10.6631 12.466 8.7638 13.3986 6.94287 14.4704C6.32923 14.1522 5.70423 13.851 5.06787 13.5726C6.88736 12.5272 8.78732 11.6285 10.7497 10.8851" fill="white"/>
<path fill-rule="evenodd" clip-rule="evenodd" d="M8.38606 10.067C6.3458 10.703 4.37245 11.5365 2.49402 12.5557C3.0622 12.7659 3.68152 12.9932 4.26675 13.2318C6.08811 12.1791 8.00358 11.2984 9.98834 10.6011C9.46182 10.4079 8.92962 10.2299 8.39175 10.067" fill="white"/>
<path fill-rule="evenodd" clip-rule="evenodd" d="M15.0168 10.8057C13.3998 10.0369 11.7263 9.39294 10.0111 8.87952C9.40882 9.04997 8.80655 9.23747 8.20996 9.4477C9.97637 9.96072 11.6995 10.6124 13.3634 11.3966C13.9316 11.192 14.46 10.9932 15.0168 10.8284" fill="white"/>
<path fill-rule="evenodd" clip-rule="evenodd" d="M7.03955 15.4022C7.85773 15.781 8.66266 16.2052 9.45432 16.6749C13.0628 14.2196 17.0304 12.3393 21.2157 11.1011C20.496 10.745 19.7649 10.4117 19.0225 10.1011C14.7683 11.2099 10.7216 13.0001 7.03955 15.4022Z" fill="white"/>
</svg>
